<svg width="1440" height="402" viewBox="0 0 1440 402" fill="none" xmlns="http://www.w3.org/2000/svg">
<path d="M1246.83 0.554291C1227.3 1.6189 1169.6 5.87726 1158.65 7.01788C1121.17 11.1242 1089.25 20.6295 1057.01 37.4348C1028.13 52.4912 1009.88 67.2434 993.613 88.6874C990.116 93.2499 987.151 96.976 987.075 96.8239C986.543 96.3676 991.56 82.9842 993.385 79.7144C998.326 71.2737 1009.65 59.183 1017.48 54.2402C1019.69 52.7954 1026.76 49.0693 1033.22 45.7995C1039.68 42.5297 1052 36.1421 1060.59 31.5035C1069.18 26.865 1082.71 19.717 1090.61 15.6107C1098.6 11.5804 1104.83 8.15854 1104.45 8.15854C1103.61 8.15854 1085.9 17.1315 1066.29 27.5493C1056.71 32.6442 1041.89 40.3244 1033.45 44.6588C1015.81 53.6318 1008.82 58.7267 1000.45 68.6882C997.49 72.1862 994.905 75.0758 994.677 75.0758C994.449 75.0758 995.057 73.7831 995.969 72.1862C998.934 67.2434 1002.2 60.9319 1000.99 62.5288C997.87 66.6351 997.566 66.7111 999.618 62.833C1000.91 60.4756 1003.65 55.9131 1005.78 52.6433C1011.02 44.6588 1010.72 43.5943 1005.4 51.1225C1003.12 54.4683 1000.83 57.1298 1000.53 57.0537C1000.15 56.9017 1000.07 57.434 1000.3 58.1183C1000.68 59.0309 1000.53 59.183 999.77 58.7267C999.162 58.3465 998.934 58.4225 999.238 58.8788C999.466 59.259 999.01 60.5517 998.174 61.8444C996.198 64.658 991.408 74.0872 991.408 74.9998C991.408 75.38 986.391 85.4175 980.309 97.2802C971.415 114.466 968.374 119.637 965.258 122.83C957.58 130.891 954.691 132.184 938.119 134.845C931.733 135.834 928.16 135.986 919.57 135.453C901.705 134.389 899.805 134.617 875.478 140.016C857.234 144.046 840.129 150.358 823.481 159.179C790.793 176.516 778.629 192.181 758.408 243.129C754.303 253.395 750.73 262.064 750.35 262.52C749.97 262.9 749.666 263.813 749.666 264.497C749.666 265.258 749.21 266.322 748.754 266.855C748.222 267.387 747.689 268.375 747.537 268.984C747.385 269.592 746.777 271.265 746.169 272.634L745.029 275.067L738.795 270.353C726.632 260.923 709.984 243.586 696.224 225.944C693.868 222.978 684.517 210.279 675.319 197.732C657.15 172.866 653.121 167.619 643.162 156.061C608.878 116.367 553.535 83.0602 505.795 73.5549C489.071 70.2851 479.112 69.5247 458.587 69.981C418.677 70.8935 378.614 81.0071 341.441 99.4854C329.658 105.341 305.864 119.408 303.811 121.69C303.431 122.146 304.115 121.842 305.331 121.081C335.663 102.147 351.171 94.4666 375.65 86.1019C431.068 67.3195 482.077 65.7226 528.069 81.3873C555.968 90.9686 584.703 107.014 609.638 127.013C628.491 142.145 643.771 158.798 663.764 186.022C687.862 218.796 698.961 233.396 705.727 241.228C715.001 252.026 728.837 265.258 737.503 271.721C743.964 276.512 745.409 278.109 743.508 278.109C742.292 278.109 734.234 272.406 727.012 266.398C713.253 254.916 697.516 237.122 679.348 212.408C648.18 170.205 643.01 163.741 628.415 149.141C609.486 130.13 586.832 114.314 558.629 100.474C509.52 76.3685 461.628 72.9466 398.836 88.8394C374.357 95.0749 350.563 104.048 329.734 114.846C323.804 117.888 309.969 125.872 298.87 132.488C266.79 151.65 249.533 159.939 232.657 164.35C198.144 173.246 164.467 164.578 127.446 137.05C110.265 124.275 95.3654 110.131 64.4254 76.9768C31.4329 41.6172 23.1467 33.4046 7.71476 20.8576L5.05408 18.7284L7.71476 20.4013C16.381 26.0285 30.1405 38.8036 64.3494 73.0987C85.2547 94.0864 106.084 114.466 110.645 118.344C138.468 142.145 160.97 154.54 186.361 160.015C195.483 161.992 216.845 161.916 225.891 159.939C232.885 158.418 246.72 154.236 246.264 153.78C246.112 153.628 242.843 154.464 238.966 155.757C227.715 159.331 218.365 160.471 204.606 160.015C187.729 159.407 176.402 156.593 160.59 149.141C131.095 135.149 111.938 119.104 55.9112 61.3882C36.5262 41.313 25.9595 31.2754 17.8254 24.9639C14.3285 22.3024 11.7438 19.869 11.8958 19.5649C12.1239 19.2607 11.6678 19.0326 10.9076 19.1086C10.2234 19.1086 9.69127 18.8045 9.76729 18.3482C9.84331 17.8159 9.38719 17.5117 8.627 17.5878C7.71476 17.6638 7.33466 17.1315 7.41068 15.9909C7.4867 15.0023 7.18263 14.47 6.87855 14.6982C6.49845 14.9263 6.34641 15.4586 6.57447 15.8388C6.87855 16.219 6.65049 16.5232 6.19437 16.5232C5.73825 16.5232 5.20612 15.9909 4.97806 15.3826C4.67398 14.7742 4.21786 14.47 3.83776 14.6982C3.45767 14.9263 3.15359 14.6982 3.15359 14.2419C3.15359 13.7857 2.84951 13.6336 2.39339 13.8617C2.01329 14.0898 1.6332 13.9377 1.6332 13.4815C1.6332 13.0252 1.32912 12.8732 0.872999 13.1013C0.492901 13.3294 0.112803 14.8503 0.188823 16.3711C0.188823 18.9565 0.64494 19.4888 5.96631 23.367C14.1764 29.3744 30.4446 44.5828 44.5082 59.4871C51.274 66.6351 64.8815 81.0831 74.8401 91.577C120.072 139.408 148.807 159.483 183.396 167.239C194.419 169.672 214.26 169.672 225.435 167.239C244.364 163.057 261.848 155.453 288.607 139.712C297.425 134.541 308.372 128.077 312.933 125.416C344.254 107.09 379.527 93.6301 415.18 86.4821C435.781 82.3759 443.383 81.6154 466.113 81.6154C488.311 81.5394 495.456 82.2238 512.485 86.1019C550.267 94.5426 593.218 118.42 623.397 147.62C637.537 161.384 644.303 169.825 680.792 218.796C701.241 246.247 718.726 264.497 736.439 276.816C742.824 281.227 743.888 282.976 738.339 279.934C731.421 276.208 718.27 265.714 709.452 256.893C697.44 244.878 688.622 234.156 666.272 204.272C644.151 174.767 637.689 166.935 625.754 154.92C604.24 133.4 574.669 114.314 543.045 101.767C519.403 92.3374 498.725 88.4592 472.575 88.4592C454.634 88.5353 442.319 89.9041 421.261 94.0864C375.878 103.211 343.417 115.682 296.893 141.765C274.011 154.692 262.608 160.395 250.977 165.034C233.569 171.954 220.874 174.691 205.594 174.691C184.612 174.691 166.824 169.749 146.831 158.266C120.984 143.438 99.3184 123.743 59.4081 78.8779C37.5905 54.3923 16.0009 32.1879 7.56272 25.4962C0.568921 19.9451 0.112803 19.717 0.112803 21.618C0.112803 22.3784 1.78523 24.2035 3.76174 25.6483C10.4515 30.591 37.0583 57.8902 57.9637 81.1592C105.172 133.78 130.41 155.3 158.994 167.391C184.612 178.265 208.178 179.786 234.557 172.41C250.521 167.923 265.725 161.004 292.408 146.175C332.47 123.819 351.855 115.15 383.328 105.569C417.384 95.227 443.155 90.8926 471.434 90.8926C505.415 90.8166 531.49 97.2802 564.178 113.857C593.978 128.99 617.088 147.468 639.209 173.931C643.619 179.178 655.174 194.082 664.98 207.161C674.711 220.165 685.353 234.004 688.546 237.958C704.206 256.893 718.65 270.505 732.866 279.782C742.14 285.789 741.836 286.702 732.486 281.227C722.755 275.447 715.229 269.592 704.89 259.478C693.031 247.996 683.453 236.438 665.056 211.952C643.086 182.524 637.157 175.452 623.093 161.308C609.258 147.392 599.527 139.636 584.779 130.739C526.548 95.4551 480.557 89.2957 409.478 107.09C366.147 117.964 338.552 128.914 291.268 153.78C262.913 168.684 244.44 176.288 227.259 180.166C216.693 182.524 192.67 182.752 182.56 180.47C166.672 177.049 151.392 170.281 135.96 160.015C112.394 144.274 91.7164 124.275 57.1275 83.8206C41.3914 65.4184 30.6727 53.2516 22.9947 45.0391C16.229 37.815 1.6332 24.1274 0.72096 24.1274C-1.40759 24.1274 1.17708 27.5493 8.47496 34.5452C18.2815 43.8984 31.2808 58.1183 49.5255 79.2581C80.7696 115.454 102.511 138.039 118.247 150.662C139.533 167.771 160.286 178.265 181.8 182.828C191.606 184.881 212.055 184.729 223.306 182.448C241.399 178.798 256.603 172.942 283.666 159.027C330.19 135.225 343.341 129.446 374.129 119.18C402.637 109.675 424.378 104.352 447.488 101.234C461.4 99.3333 489.755 99.3333 501.842 101.158C524.344 104.732 542.437 110.816 565.927 122.754C587.288 133.704 603.784 145.719 620.433 162.448C632.9 174.995 640.046 183.664 662.624 213.473C686.722 245.335 700.025 260.467 713.937 271.721C720.17 276.816 730.889 284.04 735.45 286.169C736.971 286.93 738.263 287.766 738.263 288.146C738.263 289.059 728.076 283.812 720.779 279.021C711.96 273.318 704.434 266.931 694.552 256.741C684.213 246.019 676.079 236.133 657.302 211.192C637.993 185.641 632.14 178.645 619.368 165.946C602.188 148.837 588.656 139.484 563.038 126.785C524.8 107.85 491.503 102.299 451.061 108.154C426.431 111.804 381.959 124.199 349.423 136.67C331.71 143.438 324.716 146.556 297.349 159.863C267.778 174.235 258.807 178.189 245.276 182.752C222.318 190.432 205.366 192.105 184.46 188.683C156.561 184.197 127.37 166.707 96.9618 136.366C83.0502 122.45 75.6763 113.933 48.7653 81.5394C25.5794 53.4798 13.0361 39.2599 5.51019 32.416L0.492901 27.7775L0.264842 34.0129C0.0367837 39.64 0.188823 40.4765 1.78523 42.3015L3.53368 44.2787L1.78523 42.8338L0.112803 41.389V70.4372L0.188823 99.4854L9.0071 117.127C39.567 178.417 63.5131 213.929 95.2893 245.563C108.289 258.414 125.925 271.037 141.889 278.869C174.426 294.838 208.026 298.032 249.229 289.135C275.836 283.356 312.933 269.516 339.16 255.448C357.253 245.791 367.135 239.403 389.713 222.674C431.144 191.953 447.184 184.349 474.475 182.6C497.965 181.155 528.981 189.063 551.635 202.447C571.476 214.157 584.475 226.78 613.211 262.52C635.257 289.819 651.981 305.18 667.793 312.328C674.711 315.446 684.897 318.335 692.271 319.172L698.353 319.856L691.511 319.476C687.71 319.324 681.704 318.487 678.208 317.651C669.769 315.598 656.77 309.21 648.56 302.975C638.981 295.675 624.234 280.086 607.205 259.174C590.329 238.491 578.47 225.792 568.739 218.035C545.781 199.785 520.011 189.139 490.819 186.022C465.885 183.36 441.635 189.748 418.221 205.108C409.554 210.811 403.397 215.45 384.772 230.278C365.311 245.639 354.288 253.623 342.505 260.619C296.741 287.842 242.083 304.115 203.009 302.138C179.823 300.922 164.011 296.891 143.41 286.854C124.481 277.577 109.961 267.083 93.6169 250.734C71.0391 228.225 51.8821 201.002 28.5441 158.266C22.3865 146.936 15.7728 133.628 1.86125 104.732L0.188823 101.31L0.340862 110.435C0.492901 115.454 0.79698 120.245 1.17708 121.081C1.6332 122.298 1.6332 122.374 0.949019 121.462C0.264842 120.549 0.112803 121.462 0.340862 125.264C0.492901 128.001 0.872999 130.891 1.17708 131.727C1.6332 132.944 1.6332 133.02 0.949019 132.108C0.340862 131.271 0.112803 132.031 0.112803 135.453C0.112803 139.332 0.79698 141.537 5.58621 152.563C25.1993 197.58 50.5898 240.468 73.3957 267.007C81.9099 276.892 97.722 292.709 105.552 299.173C127.446 317.195 153.292 330.198 176.934 335.065C212.36 342.289 249.153 336.814 291.952 317.955C314.758 307.917 335.055 294.99 355.504 277.424C359.685 273.85 372.381 261.836 383.632 250.734C409.554 225.259 421.261 216.362 436.769 210.355C467.861 198.34 514.233 205.488 545.933 227.237C560.073 236.894 570.184 247.084 594.206 275.828C627.426 315.674 646.431 328.753 673.646 330.578L681.628 331.11L673.95 331.186C655.858 331.491 640.882 325.711 624.69 312.252C616.328 305.256 609.03 297.348 591.165 275.828C575.125 256.513 558.325 239.479 548.214 232.331C515.678 209.214 469.686 201.23 436.617 212.788C420.577 218.492 409.022 226.476 390.854 244.65C383.556 252.026 370.404 265.41 361.586 274.459C352.464 283.812 342.049 293.698 337.26 297.424C304.495 323.354 268.082 339.931 231.592 345.558C220.037 347.307 196.395 347.307 185.981 345.558C122.732 334.684 72.5595 289.287 27.7839 202.447C19.7259 186.706 10.3754 166.631 4.21786 151.726C2.31737 147.012 0.568921 142.982 0.492901 142.906C0.340862 142.753 0.188823 150.206 0.188823 159.483V176.44L5.89029 189.824C18.5095 219.328 33.7895 247.844 49.9056 272.025C61.0045 288.603 66.934 296.131 80.5415 311.035C111.634 344.95 144.398 364.265 182.56 371.033C186.133 371.641 194.191 372.021 204.225 372.021C217.453 371.945 221.862 371.641 230.072 370.196C263.141 364.341 298.11 348.22 323.576 327.156C330.874 321.073 344.634 307.537 353.908 297.119C358.241 292.329 358.241 292.329 355.124 296.359C342.505 313.012 322.892 333.696 311.033 342.897C288.303 360.463 258.275 373.998 230.224 379.321C218.137 381.602 195.255 382.135 183.396 380.462C112.85 370.044 51.274 304.724 5.66223 191.801L0.188823 178.113L0.112803 182.752C0.112803 186.706 0.79698 188.987 4.59796 198.34C21.3983 239.403 42.7598 277.424 64.1973 304.724C70.4309 312.632 84.5706 328.221 92.1725 335.521C114.826 357.193 142.574 373.39 168.496 379.93C202.781 388.522 238.966 383.96 276.672 366.242C297.121 356.661 313.314 345.178 330.494 327.917L342.809 315.674L336.956 323.278C333.763 327.46 326.921 335.293 321.752 340.692C306.32 356.585 293.396 366.014 273.403 375.823C226.043 399.092 178.835 399.472 136.188 376.736C106.084 360.767 77.7288 333.696 53.4025 297.88C35.614 271.645 21.9304 245.106 6.87855 207.77L0.112803 191.04V196.135C0.112803 200.622 0.64494 202.447 4.97806 212.865C20.7141 250.582 39.719 285.181 59.6361 312.328C69.5947 325.863 88.6756 346.623 99.9265 356.052C108.517 363.276 123.569 373.694 132.387 378.409C166.52 396.659 204.453 400.461 242.995 389.359C255.159 385.937 263.673 382.515 276.444 375.899C295.373 366.166 310.045 355.368 325.097 340.159C335.359 329.742 342.961 320.236 360.294 295.979C366.831 286.778 374.965 275.828 378.234 271.645C401.876 241.837 423.542 230.202 455.47 230.202C481.545 230.278 509.748 238.491 528.601 251.646C542.133 260.999 550.039 268.984 572.16 295.218C594.358 321.605 608.27 334.228 622.333 340.92C631.608 345.254 636.701 346.547 647.039 347.079C663.84 347.84 682.161 342.593 700.785 331.643C704.662 329.361 708.083 327.536 708.539 327.536C708.919 327.536 709.376 327.232 709.528 326.928C709.756 326.32 728.685 316.054 729.521 316.054C729.673 316.054 731.497 315.37 733.474 314.457C735.526 313.621 737.579 312.86 738.111 312.86C738.567 312.86 739.023 312.556 739.023 312.176C739.023 311.872 739.251 311.644 739.631 311.72C740.24 311.796 741.076 311.567 747.005 309.286C749.97 308.07 756.888 305.788 759.549 305.104C759.777 305.028 761.297 304.572 762.969 304.115C764.642 303.659 769.583 302.442 773.992 301.53C781.518 299.857 783.495 299.781 809.569 299.857C824.773 299.933 836.784 299.705 836.252 299.325C835.72 299.02 834.656 298.868 833.896 299.02C833.135 299.173 832.527 299.02 832.527 298.64C832.527 298.26 831.843 298.108 831.007 298.26C830.095 298.412 828.65 298.26 827.738 297.956C826.294 297.348 826.446 297.195 829.487 296.435C847.959 291.568 863.315 282.291 879.659 265.942C890.834 254.764 899.805 243.434 912.652 224.119C925.575 204.728 933.405 191.649 944.58 170.661L948.989 162.524L951.346 164.197C960.848 170.813 973.164 182.448 984.186 195.223C998.63 211.952 1012.24 231.647 1040.44 276.968C1068.8 322.442 1083.16 342.973 1098.44 359.93C1119.73 383.58 1141.32 396.735 1165.49 400.993C1175.6 402.742 1194.68 402.134 1202.74 399.777C1219.54 394.986 1231.86 385.176 1241.28 369.055C1246.3 360.615 1249.8 352.022 1257.17 330.654C1269.26 295.294 1274.66 282.9 1283.1 270.353C1302.25 241.913 1325.13 228.529 1354.78 228.453C1365.04 228.453 1372.42 229.594 1381.54 232.559C1395.15 236.97 1404.73 242.977 1414.53 253.167C1424.34 263.357 1430.65 274.839 1435.06 290.352C1436.2 294.306 1437.19 297.652 1437.42 297.804C1437.57 298.032 1438.25 297.652 1438.94 296.967C1439.92 295.903 1440 295.142 1439.32 292.633C1438.94 290.884 1438.86 289.515 1439.24 289.515C1439.54 289.515 1439.85 284.268 1439.85 277.881C1439.85 266.398 1439.85 266.17 1437.34 260.543C1433.77 252.254 1430.12 246.551 1423.66 239.251C1416.97 231.571 1411.64 227.389 1402.37 222.522C1384.43 213.169 1361.85 210.431 1339.58 214.994C1317.99 219.404 1303.7 227.084 1288.64 242.293C1274.58 256.437 1268.88 266.398 1255.88 298.868C1246.76 321.605 1241.59 331.947 1234.75 340.996C1221.75 358.029 1205.63 365.786 1182.98 365.786C1151.96 365.786 1124.67 352.326 1095.78 322.898C1080.5 307.385 1071.61 295.903 1041.58 253.395C1024.32 228.909 1014.82 215.982 1005.62 204.348C1003.19 201.23 1002.43 200.013 1003.95 201.686C1008.51 206.629 1019.76 220.849 1037.02 243.51C1064.08 279.097 1072.22 288.907 1087.19 304.267C1116.23 334.076 1140.33 347.383 1170.66 350.349C1194.84 352.782 1217.49 345.406 1232.77 330.122C1242.12 320.769 1247.97 310.655 1261.96 279.63C1273.97 253.167 1280.21 243.129 1291.69 232.179C1310.31 214.385 1335.02 205.64 1363.07 206.857C1386.63 207.922 1404.73 215.45 1419.47 230.126C1427.46 238.111 1432.47 245.943 1438.18 259.098L1440 263.281L1439.77 257.958C1439.54 253.091 1439.16 251.874 1435.74 245.867C1431.03 237.654 1421.45 226.552 1414.46 221.229C1399.41 209.899 1381.31 204.348 1359.27 204.348C1330.91 204.348 1307.42 213.701 1288.49 232.559L1281.04 239.936L1284.84 234.461C1300.2 212.408 1317.38 200.85 1340.72 197.124C1380.7 190.584 1418.94 209.747 1436.88 245.183L1439.92 251.114V247.084C1439.92 240.392 1434.68 231.799 1423.35 220.165C1415.83 212.408 1409.67 207.846 1400.39 203.207C1371.58 188.683 1334.79 189.9 1310.16 206.097C1292.37 217.807 1280.59 233.016 1263.25 266.55C1248.28 295.446 1240.98 306.168 1229.88 315.446C1214.07 328.753 1190.05 334.076 1165.34 329.894C1154.17 327.917 1144.59 324.799 1132.8 319.096C1105.13 305.788 1082.56 284.801 1042.72 235.525C1026.61 215.526 1017.18 204.272 1009.73 196.059C996.578 181.535 995.285 179.862 1004.71 189.52C1010.03 194.919 1021.13 206.933 1029.27 216.134C1064.01 255.144 1078.45 269.896 1094.03 282.443C1120.11 303.431 1144.06 313.849 1171.27 316.13C1199.32 318.411 1224.03 309.895 1240.75 292.101C1249.27 283.052 1254.59 275.143 1266.75 253.471C1270.55 246.779 1275.49 238.263 1277.77 234.613C1286.52 220.393 1298.76 206.857 1309.09 199.785C1334.18 182.828 1374.24 182.752 1403.28 199.709C1417.35 207.922 1429.59 220.621 1437.34 235.069L1439.92 239.707V235.677C1439.92 232.179 1439.47 230.963 1436.58 226.552C1421.07 202.751 1396.52 188.379 1366.03 185.261C1350.83 183.664 1332.89 186.402 1320.12 192.181C1299.44 201.534 1283.32 219.1 1264.32 253.015C1255.35 268.984 1250.79 276.36 1245.77 283.052C1234.75 297.652 1221.29 307.005 1205.1 311.415C1198.41 313.164 1196.51 313.392 1182.22 313.392C1169.9 313.469 1165.27 313.164 1160.17 312.1C1137.9 307.309 1115.78 296.055 1094.19 278.337C1082.48 268.756 1062.11 248.072 1041.2 224.499C1017.03 197.352 1004.64 184.12 995.513 175.908C985.327 166.631 983.198 164.502 989.128 169.292C999.998 178.037 1015.43 192.865 1036.34 214.69C1067.35 247.008 1082.56 260.619 1101.86 273.622C1149.83 305.864 1203.58 307.917 1237.64 278.945C1246.07 271.797 1254.51 260.391 1272.38 232.103C1291.99 200.85 1309.78 185.869 1333.88 180.318C1338.74 179.178 1343 178.874 1354.78 178.874C1368.47 178.874 1370.29 179.102 1377.97 181.003C1402.22 187.162 1422.21 201.154 1435.44 221.229L1439.92 228.073V224.499C1439.92 220.241 1437.95 217.123 1429.13 207.237C1405.94 181.383 1366.87 170.205 1331.37 179.33C1323.46 181.307 1311.53 187.238 1304.23 192.713C1297.01 198.112 1285.45 209.975 1279.22 218.264C1276.79 221.533 1272.07 228.529 1268.73 233.852C1248.43 265.866 1240.52 275.599 1227.75 284.116C1214.53 293.013 1201.07 296.663 1181.46 296.663C1154.24 296.663 1131.13 288.983 1103.92 270.885C1087.8 260.163 1076.4 249.973 1044.62 218.035C1011.17 184.425 1001.44 175.071 990.268 166.175C980.842 158.57 979.777 157.582 985.935 161.764C998.554 170.433 1013.23 183.132 1045.08 212.865C1052.98 220.241 1062.56 228.909 1066.29 232.103C1106.27 266.474 1141.09 281.835 1178.8 281.911C1205.48 281.911 1226.61 273.774 1243.72 256.817C1250.56 250.049 1256.56 242.521 1268.12 226.02C1287.05 199.101 1296.63 188.911 1311.6 179.938C1330.91 168.304 1360.18 166.251 1385.87 174.691C1405.87 181.231 1424.34 194.842 1435.67 211.344L1439.92 217.579V214.081C1439.92 210.127 1438.02 207.313 1428.67 197.352C1415.6 183.436 1394.77 172.638 1373.79 168.912C1364.21 167.239 1347.56 167.163 1338.29 168.836C1311.75 173.627 1291.08 189.596 1267.28 223.815C1250.56 247.92 1243.79 255.904 1234.06 263.281C1217.57 275.675 1200.46 280.39 1175.45 279.402C1155.76 278.641 1138.51 274.003 1118.36 263.965C1095.25 252.483 1076.63 238.263 1039.3 203.587C1013.76 179.786 999.01 167.163 987.607 159.103C982.21 155.3 981.07 154.236 984.947 156.441C995.057 162.296 1006.31 170.889 1034.74 194.462C1067.81 221.838 1083.32 233.32 1100.34 242.901C1126.57 257.577 1152.8 265.106 1178.04 265.182C1196.21 265.182 1209.58 262.292 1223.65 255.296C1239.38 247.54 1248.28 239.175 1269.49 212.028C1292.22 182.904 1307.73 170.281 1327.64 164.502C1337.3 161.688 1346.04 160.699 1357.44 161.232C1389.45 162.753 1417.65 177.277 1435.97 201.61L1439.92 206.857V203.739C1439.92 201.154 1439.32 199.937 1436.2 196.211C1422.82 180.394 1407.62 170.053 1388.23 163.741C1376.37 159.863 1366.95 158.494 1353.64 158.494C1321.56 158.57 1298.6 171.421 1272.53 204.12C1268.65 209.062 1262.11 217.199 1258.09 222.218C1244.78 238.947 1232.92 248.833 1219.54 254.536C1205.56 260.543 1193.24 262.52 1174.62 261.912C1152.65 261.151 1134.71 256.285 1111.9 245.03C1091.6 235.069 1074.5 223.206 1045.38 199.025C1011.63 171.041 996.578 159.483 985.175 152.791C981.906 150.966 979.245 149.217 979.245 149.065C979.245 148.229 994.829 157.125 1003.57 162.905C1008.82 166.403 1022.5 176.136 1033.98 184.577C1066.06 208.074 1080.12 217.351 1098.22 226.78C1134.78 245.943 1174.39 252.407 1205.94 244.346C1228.36 238.643 1242.65 228.833 1264.01 204.576C1293.66 170.889 1308.64 159.407 1330.23 154.008C1336.01 152.563 1338.97 152.335 1351.36 152.335C1367.48 152.335 1375.23 153.551 1388 158.038C1407.01 164.73 1425.71 178.037 1436.5 192.333L1439.92 196.896V193.854C1439.92 191.116 1439.32 190.128 1434.3 184.653C1424.42 173.931 1416.59 168 1403.51 161.46C1376.14 147.696 1341.93 145.871 1317.15 156.821C1300.58 164.197 1285.45 177.201 1262.19 204.12C1248.28 220.241 1239.61 227.845 1227.75 234.308C1203.5 247.616 1166.56 248.909 1132.2 237.806C1103.54 228.453 1083.92 217.275 1039.53 184.729C1007.07 161.004 989.66 149.749 978.105 145.035C975.824 144.122 974 143.134 974.228 142.982C974.836 142.297 991.104 149.597 1000.15 154.616C1005.17 157.43 1019.38 166.098 1031.7 173.931C1067.35 196.515 1081.42 204.576 1098.29 212.18C1128.32 225.792 1160.48 232.331 1186.47 230.202C1198.03 229.29 1205.33 227.845 1215.67 224.423C1232.85 218.72 1241.44 212.56 1266.14 188.379C1276.63 178.113 1287.81 167.695 1290.93 165.11C1303.09 155.224 1315.33 148.609 1328.02 145.263C1334.71 143.438 1336.69 143.21 1349.84 143.21C1361.93 143.21 1365.58 143.514 1372.04 144.883C1398.19 150.51 1419.32 162.753 1435.97 181.839L1439.92 186.402V183.664C1439.92 181.231 1439.16 180.09 1432.55 173.399C1413.55 154.16 1386.56 142.373 1357.59 140.776C1340.72 139.788 1326.43 142.753 1311.07 150.358C1297.54 157.049 1288.04 164.654 1267.97 184.577C1258.54 194.006 1248.35 203.739 1245.47 206.173C1234.21 215.298 1220.76 221.838 1205.78 225.411C1194.84 227.997 1171.12 228.681 1157.51 226.78C1134.48 223.586 1112.58 216.438 1088.03 203.968C1075.71 197.732 1061.73 189.443 1036.64 173.399C1008.13 155.3 994.601 147.696 980.766 142.297C973.392 139.408 973.392 139.027 980.842 141.233C992.549 144.731 1008.97 152.563 1042.34 170.585C1089.55 196.059 1114.41 205.64 1149.15 211.724C1155 212.712 1161.08 213.017 1175.76 213.017C1192.71 213.017 1195.6 212.865 1202.74 211.344C1226.92 206.097 1240.75 198.188 1266.98 174.691C1288.64 155.3 1298.07 148.381 1311.45 142.069C1325.59 135.377 1341.63 132.716 1358.05 134.313C1387.62 137.202 1412.25 148.533 1432.17 168.456C1439.85 176.136 1439.92 176.212 1439.92 173.779C1439.92 171.65 1438.86 170.281 1432.47 164.045C1417.35 149.217 1396.59 138.419 1373.48 133.476C1367.17 132.108 1363.22 131.803 1350.98 131.803C1331.98 131.727 1323.92 133.476 1308.79 141.004C1295.18 147.848 1285.68 154.844 1264.32 174.083C1244.93 191.497 1233.68 198.949 1218.48 204.272C1189.52 214.461 1150.21 212.484 1110.38 198.873C1091.6 192.485 1073.74 184.12 1043.1 167.467C1010.95 149.977 992.092 141.233 979.017 137.811C972.251 135.986 973.012 135.453 980.233 136.974C993.005 139.56 1007.14 144.883 1038.54 158.722C1095.1 183.664 1121.1 191.801 1155.15 195.299C1169.37 196.667 1192.48 195.831 1203.96 193.398C1226.84 188.607 1239.54 181.839 1268.2 159.407C1297.39 136.594 1311.53 128.99 1331.29 125.568C1340.95 123.895 1359.65 124.503 1370.29 126.785C1395.91 132.26 1414.91 142.297 1432.93 159.787C1439.77 166.403 1439.92 166.555 1439.92 164.273C1439.92 162.372 1438.78 160.852 1433.31 155.605C1416.66 139.712 1395.15 128.99 1369.61 123.971C1361.09 122.374 1338.51 122.07 1331.6 123.591C1317.23 126.709 1302.63 133.096 1288.87 142.297C1284.77 145.035 1275.11 152.259 1267.36 158.418C1241.66 178.721 1230.64 184.881 1211.1 189.9C1190.5 195.147 1161.92 194.995 1133.72 189.52C1108.33 184.577 1083.92 175.984 1044.09 158.038C1012.69 143.894 996.806 138.039 981.526 134.693L972.783 132.868L979.625 133.248C992.473 133.933 1006.38 137.811 1047.66 152.107C1089.09 166.403 1109.47 171.954 1134.1 175.832C1176.14 182.448 1210.65 178.721 1238.09 164.578C1242.27 162.372 1254.51 154.692 1265.31 147.468C1276.1 140.244 1288.19 132.488 1292.14 130.13C1317.68 115.454 1340.79 111.728 1370.06 117.659C1394.77 122.678 1422.14 137.659 1437.04 154.388L1439.92 157.582V155.148C1439.92 148.685 1415.9 130.967 1396.21 122.982C1374.93 114.238 1350.07 110.968 1330.76 114.238C1314.8 116.975 1295.94 125.264 1277.62 137.659C1272.22 141.385 1262.95 147.62 1257.1 151.574C1245.16 159.787 1231.63 166.707 1221.22 170.053C1185.79 181.535 1138.28 178.341 1080.73 160.547C1074.5 158.57 1059.6 153.475 1047.66 149.217C1023.49 140.472 1014.52 137.583 1002.81 134.769C993.309 132.488 980.233 130.587 973.468 130.511C968.222 130.435 967.614 129.598 972.175 128.686C987.607 125.796 1004.03 127.545 1019.54 133.704C1023.72 135.377 1027.29 136.214 1033.3 136.746C1043.18 137.583 1056.41 140.168 1074.27 144.807C1105.13 152.715 1111.67 154.312 1122.54 156.441C1154.62 162.677 1182.45 163.437 1207.15 158.646C1224.94 155.224 1239.31 148.913 1268.12 132.031C1302.02 112.108 1317.08 106.557 1339.58 105.721C1373.03 104.428 1409.44 118.724 1435.59 143.438L1439.92 147.544V145.187C1439.92 143.286 1439.01 142.069 1434.6 138.115C1425.78 130.13 1416.59 124.047 1404.57 118.116C1391.96 111.804 1380.93 108.002 1367.71 105.417C1356.07 103.059 1335.02 102.831 1325.13 104.96C1308.03 108.61 1292.6 115.454 1266.83 130.815C1241.66 145.795 1232.09 150.206 1215.29 154.54C1200.61 158.266 1193.24 159.103 1173.48 159.027C1147.93 159.027 1132.2 156.517 1087.8 145.415C1057.47 137.735 1049.56 136.138 1037.48 134.769C1029.65 133.933 1025.62 133.02 1019.08 130.663C1006.31 126.1 1000.3 125.036 987.607 125.036C976.584 124.96 976.584 124.96 980.766 123.895C983.502 123.211 989.052 122.83 996.73 122.754C1007.3 122.754 1009.27 122.982 1016.11 124.807C1022.27 126.556 1025.69 127.013 1034.36 127.241C1040.21 127.393 1048.27 127.849 1052.22 128.305C1060.05 129.218 1081.64 132.792 1087.19 134.085C1088.26 134.313 1089.93 134.693 1090.99 134.845C1092.06 134.997 1093.58 135.301 1094.49 135.529C1095.4 135.758 1097.46 136.062 1099.05 136.29C1100.65 136.594 1102.62 136.898 1103.31 137.126C1104.07 137.354 1105.59 137.659 1106.73 137.887C1108.78 138.191 1113.8 139.103 1114.56 139.332C1114.79 139.332 1116.84 139.712 1119.12 140.016C1121.4 140.32 1123.83 140.7 1124.44 140.852C1125.05 140.928 1127.64 141.309 1130.14 141.613C1132.65 141.993 1134.86 142.297 1135.09 142.373C1135.31 142.449 1138.58 142.753 1142.31 143.134C1146.11 143.438 1149.83 143.894 1150.67 143.97C1151.51 144.122 1159.72 144.274 1168.91 144.35C1185.33 144.502 1194.84 143.818 1206.92 141.613C1224.41 138.419 1235.66 134.085 1266.37 118.876C1290.85 106.709 1298.6 103.44 1309.02 100.626C1312.9 99.5614 1316.09 98.7249 1316.24 98.801C1316.54 98.801 1321.64 97.8885 1323.99 97.4323C1327.72 96.5958 1352.5 96.4437 1357.06 97.1281C1366.03 98.4968 1367.48 98.801 1373.18 100.246C1396.14 106.025 1419.32 118.724 1435.59 134.313L1439.92 138.495V136.138C1439.92 134.161 1439.09 133.02 1435.36 129.674C1416.81 112.869 1389.6 99.9416 1362.76 95.151C1352.2 93.326 1332.51 93.2499 1323.23 95.0749C1305.75 98.5729 1294.57 102.831 1266.6 116.899C1241.97 129.218 1231.25 133.628 1217.64 137.05C1203.43 140.624 1190.05 142.145 1171.95 142.069C1150.75 142.069 1138.35 140.624 1099.36 133.552C1066.21 127.469 1055.87 126.024 1040.06 125.188C1028.96 124.579 1023.34 123.895 1017.64 122.526C1005.7 119.561 987.987 119.332 979.397 121.918C978.333 122.298 978.333 122.146 979.473 121.462C980.233 121.005 984.11 119.713 988.215 118.648C994.145 117.127 997.414 116.747 1005.09 116.747C1010.57 116.671 1015.51 117.051 1016.8 117.583C1018.32 118.192 1022.42 118.268 1030.86 117.888C1037.4 117.583 1046.14 117.355 1050.32 117.279C1057.62 117.279 1076.47 118.344 1077.31 118.8C1077.54 118.876 1079.74 119.256 1082.25 119.485C1084.76 119.789 1093.12 120.853 1100.88 121.842C1108.63 122.906 1116.84 123.895 1119.12 124.123C1121.4 124.351 1124.37 124.731 1125.58 124.884C1126.88 125.112 1130.07 125.416 1132.8 125.644C1135.54 125.872 1140.63 126.404 1144.21 126.709C1154.77 127.697 1178.87 127.697 1189.44 126.785C1211.1 124.884 1229.43 120.093 1252.76 110.283C1286.21 96.2155 1299.44 91.2728 1306.51 90.0561C1307.8 89.828 1311.53 89.0676 1314.87 88.3072C1319.36 87.3947 1324.98 87.0144 1336.16 86.9384C1351.59 86.8624 1356.61 87.2426 1365.42 89.2197C1368.16 89.828 1371.2 90.5124 1372.27 90.7405C1377.51 91.8051 1391.04 96.8999 1398.72 100.55C1413.55 107.622 1425.33 115.454 1435.36 124.807C1439.32 128.458 1439.54 128.61 1439.77 126.937C1440.08 124.807 1438.94 123.363 1431.94 117.659C1401.53 92.7936 1359.12 79.7904 1323.46 84.5811C1306.89 86.7863 1292.37 91.4249 1263.79 103.668C1224.26 120.625 1205.33 124.884 1169.67 124.884C1149.68 124.807 1145.35 124.503 1105.06 119.561C1063.78 114.466 1050.32 113.705 1034.66 115.53C1028.35 116.215 1025.77 116.215 1020.75 115.302C1010.87 113.629 996.273 114.086 987.607 116.367C983.654 117.355 980.309 118.116 980.157 118.04C979.549 117.507 992.016 112.945 998.022 111.424C1003.42 110.131 1006.76 109.827 1015.35 109.903C1023.34 109.979 1027.75 109.675 1032.84 108.534C1050.02 104.884 1076.25 104.656 1113.04 107.774C1136.61 109.827 1177.35 110.664 1191.11 109.371C1213.92 107.242 1226.31 104.124 1262.04 91.653C1296.55 79.6383 1308.18 76.9008 1328.18 76.1404C1364.66 74.6956 1404.95 89.2197 1433.84 114.162C1439.24 118.8 1439.54 118.952 1439.77 117.203C1440.08 115.074 1438.94 113.933 1428.9 106.329C1409.59 91.653 1386.79 81.3873 1362.31 76.2164C1349.46 73.4789 1329.62 72.7945 1316.39 74.6956C1302.63 76.5966 1286.59 81.0071 1263.94 89.1436C1225.55 102.831 1210.57 106.177 1180.47 107.774C1165.11 108.534 1147.25 107.85 1117.98 105.417C1107.57 104.58 1089.7 103.668 1078.37 103.44C1056.56 102.983 1046.14 103.668 1033.6 106.253C1028.58 107.242 1023.79 107.622 1015.73 107.622C1003.72 107.546 996.198 108.839 986.771 112.717C984.186 113.781 981.83 114.618 981.602 114.618C980.613 114.542 984.566 112.032 990.04 109.219C998.25 105.113 1007.37 102.603 1017.86 101.691C1023.41 101.234 1029.04 100.246 1032.84 99.0291C1054.2 92.1853 1072.67 90.9686 1129.92 92.4895C1168.53 93.5541 1185.79 93.0218 1205.4 90.2082C1220 88.1551 1228.97 86.0259 1255.5 78.4217C1296.78 66.6351 1302.48 65.6465 1326.65 65.6465C1345.66 65.6465 1350.98 66.2549 1366.34 70.133C1389.6 76.1404 1415.22 89.2957 1433.69 104.884C1439.7 109.979 1440 110.131 1439.77 108.078C1439.32 103.972 1420.99 90.5124 1404.19 81.9196C1377.66 68.4601 1350.68 62.0725 1324.75 63.2132C1305.67 64.0497 1291.84 66.7111 1262.57 75.1518C1231.33 84.2009 1218.55 87.0905 1197.42 89.6759C1188.98 90.7405 1158.04 90.8926 1103.16 90.2843C1066.06 89.828 1054.96 90.8926 1033.6 97.1281C1029.19 98.4208 1022.42 99.7135 1017.64 100.094C1007.07 101.082 999.922 103.059 989.964 107.85C981.754 111.728 981.146 111.12 988.367 106.253C997.946 99.7135 1007.9 95.7593 1019.31 93.7822C1023.64 93.0218 1029.27 91.2728 1034.13 89.2197C1042.19 85.7217 1051.84 82.9081 1062.49 80.855C1077.23 77.9654 1087.34 77.3571 1130.9 76.5966C1199.17 75.456 1203.96 74.9237 1260.14 62.1486C1289.1 55.5329 1308.03 53.2516 1325.82 54.0881C1356.91 55.5329 1385.11 64.2017 1412.48 80.5508C1419.32 84.7332 1431.94 93.8582 1436.88 98.3448C1439.85 101.006 1439.92 101.082 1439.92 99.2573C1439.92 97.052 1437.26 94.3905 1428.67 88.1551C1409.21 73.7831 1386.71 63.1371 1363.45 57.2058C1349.76 53.6318 1338.21 52.2631 1323.01 52.2631C1303.24 52.2631 1288.49 54.3162 1259 61.084C1208.52 72.7185 1202.21 73.4029 1140.79 74.3154C1115.7 74.6956 1091.45 75.38 1086.81 75.8362C1063.93 78.1175 1050.48 81.1592 1033.07 87.9269C1028.73 89.5999 1021.74 91.653 1017.41 92.5655C1007.52 94.5426 997.87 98.4208 990.268 103.364C989.052 104.2 990.192 102.679 992.929 100.018C998.934 94.2385 1008.51 88.9915 1018.4 86.1019C1022.12 85.0373 1028.81 82.2998 1033.22 80.0946C1049.11 71.9581 1066.9 66.6351 1087.57 63.7455C1103.92 61.4642 1113.95 60.7798 1149.91 59.4871C1196.43 57.8142 1204.34 57.0537 1241.89 50.362C1282.41 43.138 1293.81 41.9974 1315.18 42.6057C1360.86 43.9745 1400.17 58.9548 1437.49 89.2197C1439.85 91.1968 1439.92 91.1968 1439.92 89.6759C1439.92 86.178 1419.55 71.7299 1401.69 62.5288C1368.31 45.2672 1335.62 38.3474 1299.36 40.7807C1283.86 41.8453 1275.57 42.9859 1248.73 47.7006C1205.4 55.3048 1198.49 55.9892 1133.56 58.3465C1085.22 60.1715 1061.88 64.734 1035.5 77.5092C1029.42 80.3987 1021.66 83.6686 1018.17 84.6571C1014.67 85.6457 1009.73 87.5467 1007.14 88.8394C1001.06 91.9572 1002.66 90.0561 1011.02 84.353C1027.37 73.1747 1058.38 60.7038 1088.56 53.0995C1110.07 47.7006 1125.28 45.6474 1166.63 42.3776C1202.44 39.64 1205.48 39.3359 1233.99 35.5338C1262.27 31.8077 1275.42 30.4389 1289.41 29.7545C1338.89 27.5493 1393.93 45.2672 1431.87 75.6841C1435.29 78.4217 1438.48 80.9311 1439.01 81.3873C1439.7 81.9196 1439.92 81.6915 1439.92 80.4748C1439.92 78.6498 1432.32 72.3383 1420.54 64.4299C1393.93 46.636 1364.13 35.0015 1332.66 30.1348C1323.31 28.69 1318.52 28.3858 1300.05 28.3858C1277.01 28.3098 1275.87 28.3858 1238.85 33.2525C1209.05 37.1307 1205.71 37.4348 1173.48 39.7161C1143.14 41.8453 1126.95 43.6703 1109.01 47.0162C1063.93 55.4569 1021.89 72.4143 999.846 91.1207C990.344 99.1812 989.888 99.4093 993.537 95.0749C999.542 87.7749 1013.53 75.1518 1020.9 70.2091C1035.2 60.7038 1060.28 48.6891 1080.73 41.6932C1109.16 31.8837 1130.37 28.1577 1181.46 24.1274C1192.56 23.2149 1211.71 21.542 1224.03 20.3253C1260.06 16.7513 1268.42 16.2951 1289.41 16.7513C1309.4 17.1315 1319.58 18.2722 1336.16 21.8462C1372.19 29.6785 1406.86 46.3318 1435.97 69.6768C1439.47 72.5664 1439.92 72.7185 1439.92 71.3497C1439.92 69.4487 1431.87 62.833 1419.25 54.4683C1380.32 28.69 1339.96 16.0669 1291.31 14.47C1275.57 14.0138 1261.66 14.7742 1231.4 17.7399C1220.99 18.7284 1199.09 20.6295 1182.75 21.8462C1143.45 24.8878 1127.41 27.017 1106.2 32.1879C1070.09 41.0849 1030.94 59.0309 1009.65 76.5966C1006.92 78.8019 1001.67 83.7446 997.946 87.5467C991.028 94.6187 991.712 93.0978 1000.07 82.68C1011.4 68.6882 1023.41 58.5746 1041.51 47.7006C1083.16 22.7587 1115.4 12.7211 1168.91 7.85437C1263.86 -0.738434 1295.79 -0.206116 1337.68 10.82C1372.87 20.0211 1408.98 38.2713 1434.98 59.7913C1439.16 63.2892 1440.68 63.6694 1439.7 61.084C1439.47 60.4756 1435.36 57.1298 1430.65 53.5558C1379.64 15.2305 1315.78 -3.17178 1246.83 0.554291ZM19.8019 51.8829C24.6671 57.2819 37.3624 72.1862 48.0051 84.9613C72.3314 114.162 82.8221 125.872 96.2776 139.408C124.937 168.076 151.088 184.273 178.759 190.28C186.589 192.029 205.67 192.637 215.02 191.421C230.072 189.596 249.229 183.664 269.07 174.691C273.555 172.714 286.783 166.479 298.49 160.776C330.418 145.339 346.914 138.647 377.93 128.305C448.856 104.808 492.796 102.071 537.951 118.268C569.043 129.446 596.106 146.327 617.544 168C628.263 178.874 637.157 189.596 655.934 214.233C674.559 238.719 682.769 248.68 692.803 258.946C706.411 272.938 717.434 281.379 730.509 288.07C734.006 289.819 736.667 291.416 736.439 291.568C735.754 292.253 720.322 284.42 714.241 280.39C695.996 268.147 682.465 253.699 652.893 214.842C634.648 190.888 628.187 183.208 616.556 171.574C601.58 156.669 586.3 145.871 565.014 135.225C532.326 118.8 502.906 112.184 472.803 114.466C452.657 115.987 435.325 119.561 405.753 128.381C364.551 140.7 336.804 151.194 297.425 169.368C247.937 192.105 227.868 198.264 202.705 198.264C166.368 198.264 133.755 181.991 97.4179 145.795C84.0384 132.412 73.6237 120.245 44.6603 83.9727C21.7024 55.3048 18.6616 51.6548 6.34641 37.663L0.72096 31.3514L5.81427 36.6744C8.627 39.564 14.9366 46.4078 19.8019 51.8829ZM5.81427 41.6172C7.41068 43.2901 8.627 44.6588 8.39894 44.6588C8.17088 44.6588 6.65049 43.2901 5.05408 41.6172C3.45767 39.9442 2.24135 38.5755 2.46941 38.5755C2.69747 38.5755 4.21786 39.9442 5.81427 41.6172ZM12.1239 54.6964C16.229 59.8673 27.2518 73.9352 36.6022 86.1019C66.5539 125.036 80.8456 142.145 96.6577 157.962C124.709 186.022 152.608 202.295 180.659 207.009C189.63 208.53 206.582 208.758 216.008 207.465C237.826 204.424 252.042 199.709 302.291 178.721C356.569 156.061 402.18 139.484 432.74 131.423C455.47 125.416 478.048 122.906 496.369 124.351C531.262 127.241 569.88 143.514 599.071 167.771C612.603 178.95 624.462 192.257 647.8 222.598C665.284 245.259 673.266 254.688 683.681 264.954C698.505 279.706 710.82 288.299 725.112 294.078C733.398 297.424 734.918 298.336 729.065 296.663C712.796 291.872 698.125 282.671 682.085 267.083C671.898 257.197 663.688 247.54 647.42 226.4C630.619 204.576 623.625 196.135 613.971 186.174C598.083 169.749 582.651 158.494 562.278 148.457C524.344 129.902 491.96 125.036 455.318 132.488C428.179 137.963 373.521 157.658 285.186 193.702C237.142 213.245 206.962 218.492 177.162 212.332C150.632 206.857 125.849 191.801 98.9383 164.806C80.0854 145.947 65.4136 127.925 34.3216 85.6457C24.059 71.6539 13.0361 56.9017 9.76729 52.7954C6.57447 48.7651 4.06582 45.4193 4.29388 45.4193C4.44592 45.4193 8.01884 49.6016 12.1239 54.6964ZM17.0652 54.6964C21.3983 59.8673 33.4854 74.6195 43.9001 87.6228C74.536 125.796 90.272 143.514 105.932 157.734C154.433 201.61 197.004 210.583 254.778 188.987C260.404 186.858 279.789 178.721 297.806 170.813C341.821 151.574 353.148 147.164 384.772 136.67C433.12 120.549 459.879 115.302 488.539 116.367C508.836 117.127 526.625 121.081 547.454 129.522C574.441 140.548 596.639 155.376 616.252 175.528C627.046 186.63 633.508 194.462 652.741 219.556C670.986 243.357 675.699 249.061 686.494 260.087C701.622 275.599 712.188 283.584 727.088 290.732C736.439 295.218 737.123 295.827 729.445 292.937C715.305 287.614 701.774 278.641 688.166 265.562C677.751 255.524 668.857 245.106 652.589 223.815C645.215 214.157 636.245 202.675 632.672 198.264C624.614 188.303 607.433 170.737 599.907 164.578C580.294 148.761 550.343 133.704 525.18 127.165C510.28 123.363 500.246 121.994 486.258 121.994C462.236 121.918 443.079 125.948 400.812 139.788C362.042 152.563 332.851 163.589 299.554 178.113C267.17 192.333 252.498 197.808 235.774 202.066C194.951 212.408 160.058 205.032 124.937 178.569C101.979 161.232 80.9216 138.571 47.9291 95.7593C19.8019 59.335 15.6968 54.0881 12.0479 49.7537C9.99535 47.3964 8.47496 45.4193 8.70302 45.4193C8.93108 45.4193 12.7321 49.6016 17.0652 54.6964ZM19.9539 71.4258C25.9595 79.4862 36.2981 93.478 42.9879 102.451C78.641 150.51 103.651 177.125 129.194 194.31C162.795 216.971 196.699 222.446 238.054 211.952C253.942 207.922 265.041 203.892 313.542 184.653C378.842 158.722 424.606 142.145 444.219 137.431C476.3 129.674 498.649 129.598 526.016 137.126C556.424 145.491 585.616 162.22 607.509 183.816C617.164 193.398 625.602 203.283 642.63 225.259C661.179 249.137 667.869 257.121 677.143 266.398C692.803 282.063 708.311 292.253 725.34 297.956C733.398 300.617 731.649 300.845 722.603 298.26C707.551 293.926 690.447 283.204 676.307 269.212C667.033 260.087 658.823 250.429 643.999 231.343C627.35 209.899 621.877 203.435 610.626 191.877C590.177 170.965 573.377 159.483 548.29 149.217C507.848 132.716 474.627 131.955 432.056 146.632C418.981 151.194 372.381 169.216 306.472 195.223C275.38 207.465 263.293 211.8 249.001 215.754C201.261 228.833 166.292 224.651 131.627 201.686C120.072 194.006 112.318 187.466 98.5582 173.627C78.0329 153.019 61.5366 132.26 28.8482 85.6457C19.8779 72.7945 11.5918 61.084 10.3754 59.5631C9.23515 58.0423 8.47496 56.8256 8.70302 56.8256C8.93108 56.8256 13.9484 63.4413 19.9539 71.4258ZM27.5559 89.2957C56.5954 130.511 69.7467 147.544 88.6756 167.923C118.855 200.546 147.591 218.34 180.279 224.499C189.402 226.172 210.611 226.172 220.57 224.499C221.634 224.347 223.914 223.967 225.663 223.739C231.516 222.902 249.761 218.187 260.176 214.766C279.485 208.378 329.658 189.139 394.274 163.285C444.295 143.286 461.932 138.799 488.919 139.027C518.794 139.256 550.267 149.521 578.242 168.228C590.253 176.212 597.475 182.295 608.27 193.398C617.24 202.599 622.485 208.986 650.08 243.966C662.7 259.935 679.12 276.892 689.23 284.42C697.593 290.58 712.036 298.032 720.779 300.541C724.351 301.53 726.48 302.366 725.644 302.366C722.451 302.518 710.364 298.488 702.914 294.914C689.534 288.451 676.383 278.109 663.992 264.497C657.226 257.045 653.881 252.939 629.403 222.218C611.614 199.937 599.527 187.466 585.16 176.592C565.242 161.612 534.455 148.761 508.684 144.731C478.656 140.016 455.926 144.35 410.238 163.513C399.824 167.847 381.807 175.376 370.252 180.242C344.101 191.192 294.917 210.659 279.561 216.134C259.188 223.358 240.715 228.225 223.838 230.658C211.447 232.483 190.694 232.331 179.215 230.278C135.58 222.522 98.5582 192.257 50.6658 125.264C41.1634 111.88 11.2877 67.4716 11.8198 67.4716C11.9719 67.4716 19.1177 77.281 27.5559 89.2957ZM22.9947 90.4363C55.7591 139.256 71.1151 159.331 93.0087 181.915C111.786 201.23 126.533 212.56 144.93 221.457C153.9 225.868 168.8 231.191 174.578 232.103C176.782 232.483 178.607 232.864 182.56 233.7C183.624 233.852 189.25 234.232 195.103 234.537C219.809 235.601 243.299 230.734 284.426 216.134C319.775 203.511 356.265 188.987 394.274 172.41C430.46 156.593 444.599 151.498 461.552 148C469.078 146.48 472.499 146.175 486.258 146.175C504.731 146.175 507.696 146.48 521.227 149.977C554.068 158.342 582.955 175.376 606.597 200.165C614.123 208.074 618.836 213.701 643.619 245.03C657.606 262.672 675.015 280.542 685.429 287.918C694.172 294.078 707.095 300.389 715.837 302.747C719.638 303.811 722.147 304.648 721.463 304.648C720.779 304.724 716.901 303.887 712.872 302.899C694.172 298.108 675.319 285.485 657.682 265.866C653.805 261.532 643.239 248.757 634.268 237.502C610.246 207.389 599.755 196.059 585.388 184.577C575.885 176.973 569.195 172.866 555.816 166.403C524.724 151.422 493.176 146.327 465.201 151.879C447.716 155.3 434.261 160.471 391.538 180.242C347.142 200.774 302.291 219.024 272.643 228.681C197.46 253.015 147.895 242.901 98.1021 192.941C75.6003 170.281 55.303 143.134 22.3105 91.4249C17.5213 83.8967 13.1122 76.9768 12.428 75.9883C11.8198 75.0758 11.5157 74.3154 11.7438 74.3154C11.9719 74.3154 16.9892 81.6154 22.9947 90.4363ZM19.1937 92.5655C45.7246 134.541 65.1096 161.308 84.1905 182.372C115.891 217.503 144.018 235.221 179.139 242.141C189.706 244.194 215.4 244.042 228.476 241.761C253.182 237.502 285.11 227.313 330.722 209.214C355.58 199.329 369.644 193.17 394.959 181.003C438.138 160.319 453.874 154.844 476.756 152.563C509.444 149.293 553.079 163.057 582.347 185.946C596.639 197.124 608.346 209.671 630.771 238.187C646.964 258.794 652.817 265.638 662.319 275.143C678.892 291.644 696.148 302.062 713.405 305.788C715.989 306.397 717.206 306.853 716.141 306.929C712.112 307.081 698.961 303.127 691.511 299.477C673.418 290.656 657.53 275.752 632.596 244.65C612.983 220.089 606.065 212.18 594.89 201.306C585.008 191.725 580.218 187.847 570.032 181.231C552.699 169.901 524.952 159.787 503.895 157.202C492.34 155.757 472.271 156.593 462.312 158.95C445.055 163.057 436.997 166.403 395.415 187.238C359.229 205.336 345.546 211.572 317.723 222.674C266.637 242.977 235.622 250.734 204.834 250.734C159.982 250.734 124.253 232.864 87.8394 192.029C66.1738 167.695 48.3852 142.525 19.8779 95.6072C7.8668 75.8362 7.94282 75.9123 9.0071 76.9768C9.46321 77.3571 14.0244 84.429 19.1937 92.5655ZM19.9539 102.071C60.7004 168.836 92.3246 207.009 125.241 229.138C134.515 235.297 151.62 243.738 161.198 246.855C175.794 251.646 183.244 252.635 203.465 252.635C219.125 252.635 223.078 252.33 231.592 250.81C272.263 243.586 338.172 219.024 389.713 191.953C442.167 164.35 458.663 158.722 486.258 158.57C527.613 158.418 572.388 179.558 603.024 213.701C606.901 217.959 618.076 231.571 627.883 243.89C654.109 276.664 668.325 290.352 685.962 299.781C696.148 305.18 708.843 309.058 717.586 309.362C719.486 309.438 719.866 309.59 718.65 309.818C715.685 310.427 704.282 308.602 697.669 306.473C689.534 303.963 677.979 297.956 670.302 292.329C661.179 285.637 643.543 267.387 631.075 251.874C606.597 221.305 595.118 208.606 582.043 197.656C563.114 181.839 539.396 170.509 513.473 165.034C504.731 163.209 502.146 162.981 487.779 162.981C473.715 162.905 470.826 163.133 463.984 164.654C446.272 168.608 428.863 176.44 394.274 195.983C361.966 214.233 342.201 223.663 308.98 236.742C266.866 253.319 235.545 260.619 206.354 260.619C171.537 260.619 141.813 249.821 113.458 226.932C105.096 220.241 88.2195 203.131 79.4773 192.561C60.4724 169.52 42.3797 142.677 19.8779 103.972C4.14184 76.8248 4.14184 76.1404 19.9539 102.071ZM7.33466 88.7634C8.01884 89.9801 8.32292 91.0447 8.17088 91.0447C7.94282 91.0447 7.25865 89.9801 6.57447 88.7634C5.89029 87.4707 5.58621 86.4821 5.73825 86.4821C5.96631 86.4821 6.65049 87.4707 7.33466 88.7634ZM5.81427 94.0864C6.87855 96.1395 7.56272 97.8885 7.33466 97.8885C7.18263 97.8885 6.11835 96.1395 5.05408 94.0864C3.9898 91.9572 3.30563 90.2843 3.53368 90.2843C3.68572 90.2843 4.75 91.9572 5.81427 94.0864ZM984.262 97.7364C982.21 103.896 978.333 110.816 977.041 110.816C976.584 110.816 978.181 106.785 980.461 101.843C982.818 96.976 984.871 92.4895 985.099 91.9572C985.327 91.4249 985.707 91.1207 985.859 91.3488C986.087 91.577 985.327 94.3905 984.262 97.7364ZM17.9774 107.318C40.3272 145.491 61.0805 176.136 77.3487 194.842C100.079 221.001 121.136 238.339 142.65 248.833C164.771 259.555 183.396 263.433 209.395 262.672C232.657 262.064 251.358 258.11 285.718 246.551C328.441 232.255 355.352 220.089 397.999 195.603C439.658 171.802 455.698 165.87 481.317 165.034C495.228 164.578 504.655 165.566 518.186 169.064C544.641 175.756 564.254 186.022 584.323 203.587C594.206 212.18 602.188 221.229 621.953 245.791C640.35 268.68 647.648 276.968 656.466 284.953C667.641 295.142 676.839 301.15 688.47 305.712C695.54 308.526 708.311 311.491 714.089 311.644C716.141 311.72 716.673 311.872 715.457 312.1C712.796 312.632 700.253 310.959 693.944 309.21C681.552 305.712 667.337 297.5 654.641 286.245C645.975 278.641 637.841 269.44 618.076 245.03C602.416 225.716 587.288 209.443 577.862 201.838C557.184 185.185 532.554 174.235 505.263 169.672C493.632 167.695 474.779 167.923 464.593 170.053C453.038 172.486 443.839 175.756 432.056 181.535C421.87 186.478 418.069 188.683 381.047 211.116C371.24 217.047 358.165 224.423 352.084 227.541C312.781 247.464 270.819 262.216 236.534 268.223C224.523 270.353 202.249 271.113 190.922 269.82C138.468 263.813 96.4296 232.864 53.5546 168.608C42.2277 151.65 23.6029 120.169 11.8958 98.2687C6.19437 87.6228 8.39894 90.9686 17.9774 107.318ZM9.99535 110.588C54.999 196.896 95.7455 245.791 141.813 268.527C163.935 279.402 186.057 284.04 212.207 283.204C233.493 282.519 252.726 278.717 280.473 269.592C317.038 257.729 352.16 241 379.831 222.37C385.684 218.492 396.783 211.039 404.537 205.793C439.43 182.448 457.067 176.288 486.486 177.201C504.731 177.733 520.315 181.307 538.94 189.139C565.851 200.546 583.183 215.678 615.415 256.057C635.561 281.227 645.139 291.188 658.062 300.541C670.53 309.514 683.377 314.457 699.113 316.51L707.475 317.575L699.493 317.195C686.342 316.51 677.447 314.153 666.348 308.222C649.548 299.325 637.613 287.538 607.813 250.734C595.118 234.993 581.207 220.241 572.616 213.321C545.097 191.04 509.368 178.721 477.136 180.242C451.517 181.459 430.004 190.964 395.035 216.515C357.177 244.194 349.955 248.757 327.377 259.859C298.794 273.85 270.438 283.432 242.235 288.679C192.975 297.88 149.643 286.93 110.493 255.372C77.3487 228.605 47.2449 186.098 11.8198 115.911C7.03059 106.405 3.30563 98.6489 3.45767 98.6489C3.6097 98.6489 6.57447 104.048 9.99535 110.588ZM16.0769 112.717C30.2166 138.115 46.3327 164.121 58.5719 181.155C108.061 249.821 158.918 278.489 220.95 272.786C253.714 269.744 302.671 254.308 345.014 233.624C365.159 223.815 370.404 220.849 395.035 205.488C427.571 185.185 440.494 178.721 456.534 174.691C476.756 169.596 494.468 169.749 516.666 175.3C528.525 178.265 538.94 182.067 549.354 187.238C572.236 198.416 589.265 214.081 618.532 250.734C636.473 273.242 651.373 289.135 661.711 296.739C673.266 305.18 686.722 311.111 698.809 313.088C706.867 314.381 707.019 314.457 703.978 314.533C695.92 314.761 680.488 310.427 670.682 305.028C657.454 297.88 641.034 282.291 622.789 259.859C597.779 229.138 587.896 218.187 576.265 208.454C543.729 181.307 496.141 168.304 460.411 176.896C440.418 181.763 427.419 188.531 388.877 214.309C360.066 233.548 345.242 242.065 323.196 251.874C273.403 274.079 227.944 284.04 193.127 280.466C145.766 275.599 105.78 249.669 68.1503 199.709C51.7301 177.885 31.813 145.263 14.1764 111.196C6.72651 96.8999 7.71476 97.6604 16.0769 112.717ZM24.9712 158.722C56.5954 216.971 87.8394 255.296 123.113 278.793C168.116 308.83 217.453 312.936 279.561 291.72C310.501 281.151 341.061 265.79 364.627 248.985C368.808 246.019 379.907 237.426 389.333 229.822C422.706 203.131 436.541 195.071 457.143 190.508C467.405 188.227 487.55 188.075 499.181 190.204C543.273 198.264 566.307 214.309 609.942 267.463C623.549 284.04 630.467 291.72 638.525 298.868C650.156 309.286 661.331 315.826 673.646 319.476C677.219 320.54 679.348 321.377 678.512 321.377C675.547 321.453 663.536 317.651 657.226 314.609C640.958 306.777 628.263 294.382 597.171 256.057C585.92 242.141 569.5 225.716 559.313 218.187C545.173 207.694 529.057 200.241 511.497 195.983C487.702 190.128 468.317 190.052 449.008 195.603C441.863 197.656 428.863 203.511 422.402 207.542C414.42 212.56 398.151 225.335 381.047 240.088C371.24 248.452 359.457 258.11 354.896 261.532C327.453 281.759 294.005 297.652 259.72 306.625C215.932 318.107 178.379 315.294 143.182 297.88C102.739 277.805 68.6065 241 35.1578 181.307C27.6319 167.847 16.6851 146.175 10.0714 131.727C2.39339 114.998 2.62145 114.77 10.6035 130.967C14.3285 138.495 20.7901 150.966 24.9712 158.722ZM15.0126 149.977C35.69 192.181 56.8234 225.411 78.413 249.593C87.9154 260.315 101.447 273.394 109.201 279.63C133.603 299.02 161.882 311.339 189.478 314.609C201.185 315.978 225.967 315.217 237.674 313.164C281.613 305.332 331.026 282.671 367.287 253.699C371.24 250.582 380.667 242.521 388.193 235.981C420.349 207.846 435.857 198.873 459.271 194.766C470.142 192.865 489.983 193.626 502.374 196.287C521.455 200.47 540.004 208.226 552.927 217.503C568.587 228.757 578.85 239.099 603.632 268.984C635.865 307.841 653.501 320.845 679.12 324.495L683.909 325.179L677.827 324.875C662.091 324.038 646.811 316.89 630.923 302.975C622.789 295.827 614.807 286.93 598.463 266.702C573.148 235.449 553.231 218.187 531.566 208.834C514.081 201.306 494.62 197.276 475.995 197.2C462.388 197.2 454.026 198.493 442.167 202.599C423.238 209.138 409.934 218.644 377.55 248.833C360.598 264.649 354.136 270.124 342.961 278.109C320.003 294.534 291.344 308.298 263.141 316.51C219.505 329.133 180.583 327.004 145.462 310.047C125.241 300.313 110.265 289.515 92.7807 272.025C67.1621 246.551 45.9526 215.222 22.6906 168.608C14.4805 152.335 2.84951 127.089 1.86125 123.743C1.55718 122.45 1.40514 122.222 15.0126 149.977ZM11.8958 154.844C30.6727 195.147 54.6189 234.004 74.9921 257.197C106.54 293.089 136.264 313.316 170.777 322.213C195.027 328.449 222.926 328.221 250.977 321.453C280.929 314.229 314.682 299.02 341.441 280.542C356.265 270.353 366.147 262.14 387.889 241.685C411.683 219.252 426.203 209.291 442.927 203.663C469.306 194.842 505.035 198.645 534.455 213.397C554.524 223.51 569.043 236.59 596.03 268.984C624.31 302.899 638.373 315.446 656.086 322.594C664.144 325.863 669.161 326.928 679.728 327.536L689.991 328.145L677.827 327.917C664.752 327.764 661.179 327.08 651.221 322.898C636.701 316.89 618.912 301.074 599.147 276.588C579.61 252.407 566.155 238.263 553.916 229.138C534.15 214.233 510.128 205.336 482.533 202.827C461.172 200.85 438.822 205.869 420.805 216.819C409.782 223.51 398.912 232.864 375.726 255.752C351.779 279.249 342.961 286.778 327.757 296.815C310.349 308.298 293.7 316.586 273.935 323.658C239.803 335.901 207.494 338.867 177.619 332.555C165.607 329.97 156.561 326.776 143.41 320.312C103.956 301.074 70.4309 266.094 38.8828 211.116C31.5089 198.264 14.5565 164.121 7.94282 148.837C-1.55963 126.937 -0.0392359 129.218 11.8958 154.844ZM933.253 141.993C934.622 142.601 934.622 142.677 932.873 142.677C931.809 142.677 930.441 142.373 929.832 141.993C928.92 141.385 928.92 141.233 930.212 141.309C931.049 141.309 932.417 141.613 933.253 141.993ZM883.08 147.164C867.496 155.3 858.602 162.144 842.714 178.037C824.545 196.287 814.055 210.431 792.541 245.791C779.542 267.311 776.197 272.178 765.098 286.397C764.946 286.55 764.642 286.55 764.414 286.245C764.11 286.017 764.566 285.181 765.326 284.42C767.607 282.139 778.705 264.801 786.155 251.874C803.944 221.153 809.569 212.332 819.908 199.101C827.206 189.672 842.334 173.779 851.076 166.403C861.947 157.125 877.607 147.392 887.261 143.818C892.507 141.917 891.29 142.83 883.08 147.164ZM889.162 146.784C867.876 157.962 849.328 174.311 829.487 199.329C821.048 209.975 813.066 221.609 800.979 240.848C794.822 250.658 787.6 261.912 784.863 265.866C779.542 273.394 769.431 285.941 767.759 286.93C766.77 287.538 767.987 285.713 770.039 283.584C773.612 279.706 783.495 264.725 795.886 244.27C813.218 215.678 825.762 198.34 840.509 182.6C855.485 166.555 869.853 155.376 885.285 147.696C897.144 141.765 899.881 141.157 889.162 146.784ZM901.325 146.784C887.87 153.932 875.478 163.665 861.035 178.569C846.211 193.778 835.72 207.237 813.903 238.947C797.102 263.281 789.5 273.242 780.682 282.215L773.08 289.895L779.314 282.747C789.956 270.353 795.962 261.912 817.475 229.062C845.071 187.01 870.461 161.156 897.676 147.316C906.722 142.753 909.839 142.297 901.325 146.784ZM866.66 144.578C866.508 144.731 863.695 145.947 860.503 147.24C840.357 155.224 817.247 170.205 802.804 184.577C790.945 196.439 784.559 206.933 770.343 238.263C761.069 258.642 751.11 279.021 750.654 278.641C750.502 278.489 751.871 275.143 753.695 271.189C755.519 267.235 760.917 254.992 765.63 243.89C782.963 203.131 791.097 190.128 808.125 175.832C821.352 164.806 842.714 152.411 857.994 146.86C864.151 144.578 867.572 143.742 866.66 144.578ZM872.666 149.141C849.784 162.144 825.534 185.946 806.985 213.549C800.371 223.282 795.354 231.647 780.606 256.969C774.296 267.843 762.665 285.257 762.057 284.725C761.905 284.496 764.262 280.542 767.227 275.752C770.267 271.037 777.717 258.186 783.723 247.312C800.903 216.286 805.54 208.986 816.183 195.603C832.299 175.452 854.193 156.669 871.297 148.533C879.051 144.807 879.735 145.111 872.666 149.141ZM906.19 146.099C906.038 146.251 902.845 148.457 899.044 150.966C885.209 160.091 873.35 170.661 860.807 184.881C849.556 197.808 842.942 206.401 823.405 233.624C803.564 261.227 794.822 272.254 785.623 281.151C781.974 284.725 780.682 285.713 782.81 283.432C792.997 272.482 800.523 262.444 817.323 237.882C839.673 205.032 849.556 192.561 866.66 175.452C879.431 162.677 887.261 156.517 899.577 149.369C905.202 146.175 907.103 145.187 906.19 146.099ZM916.909 146.099C916.909 146.251 915.085 147.544 912.956 148.913C899.425 157.582 880.192 176.06 864.988 194.995C861.035 199.937 850.772 213.625 842.182 225.488C833.516 237.274 822.949 251.342 818.692 256.665C809.265 268.299 794.441 283.356 787.828 287.918C783.571 290.808 784.255 289.971 794.365 279.934C806.985 267.235 813.522 259.326 829.943 236.514C857.31 198.645 867.04 186.478 881.56 172.03C886.577 167.011 893.951 160.471 897.904 157.43C908.395 149.521 916.909 144.426 916.909 146.099ZM893.039 147.544C860.503 168 842.334 187.694 806.681 240.924C791.705 263.281 784.027 273.774 777.869 280.39L773.916 284.572L777.793 279.63C782.05 274.231 795.886 253.699 808.201 234.384C822.113 212.636 832.147 199.253 845.983 184.12C858.982 169.901 875.174 156.593 887.946 149.673C893.419 146.708 896.156 145.567 893.039 147.544ZM910.447 147.24C909.991 147.544 907.026 149.673 903.758 151.803C895.396 157.43 885.893 165.566 876.239 175.528C862.935 189.215 855.333 198.797 826.066 238.947C809.341 261.836 795.506 278.033 785.775 285.941C783.191 288.07 784.255 286.702 789.272 281.531C799.155 271.113 805.996 262.368 825.609 234.917C848.263 203.055 858.45 190.432 873.502 175.452C886.121 162.905 893.419 156.973 904.518 150.206C910.295 146.708 911.892 145.871 910.447 147.24ZM923.827 149.141C923.827 149.445 921.85 151.118 919.418 152.943C900.565 166.859 869.245 197.276 852.901 217.655C850.164 221.001 843.93 229.366 838.989 236.286C834.048 243.205 827.434 252.102 824.241 256.057C813.598 269.516 798.471 283.888 789.576 289.135C787.524 290.352 787.524 290.276 789.956 288.299C807.213 274.079 816.563 263.281 844.082 225.868C864.532 198.112 873.426 187.086 885.285 174.919C895.396 164.426 905.05 156.137 914.096 150.13C918.962 146.86 919.418 146.708 921.546 147.62C922.839 148.152 923.827 148.837 923.827 149.141ZM854.193 151.803C853.737 152.183 846.971 156.745 838.989 161.916C804.324 184.653 795.278 195.451 774.828 239.099C766.542 256.589 756.66 275.675 754.151 278.869C753.315 279.934 754.531 277.196 756.812 272.786C759.092 268.375 764.794 256.437 769.431 246.171C787.372 206.781 793.681 195.907 805.54 184.197C814.815 174.995 831.615 163.133 847.351 154.768C854.345 151.042 855.409 150.586 854.193 151.803ZM924.891 151.803C924.435 152.183 921.546 154.616 918.429 157.278C893.039 178.645 865.216 208.91 843.93 238.187C828.422 259.555 815.575 273.774 803.64 282.747C792.085 291.416 791.097 291.264 801.815 282.443C814.739 271.873 825.153 259.783 842.41 235.525C848.795 226.552 856.397 216.286 859.362 212.712C866.28 204.348 891.214 179.406 902.465 169.596C911.284 161.916 924.587 151.118 925.195 151.118C925.423 151.118 925.271 151.422 924.891 151.803ZM857.994 154.084C857.538 154.388 855.257 156.137 852.825 157.886C834.732 171.041 817.019 189.748 802.956 210.431C795.506 221.305 792.161 227.084 780.682 247.996C771.255 265.182 762.361 279.934 760.841 280.922C760.309 281.227 760.537 280.542 761.297 279.402C764.566 274.383 767.987 268.147 778.325 248.452C795.354 215.982 803.488 202.979 815.651 188.835C826.826 175.832 843.626 161.156 853.357 155.985C858.146 153.399 859.21 152.943 857.994 154.084ZM910.219 169.14C883.46 195.755 872.21 208.682 847.959 240.544C827.358 267.615 814.207 280.694 798.699 289.439C794.898 291.568 796.722 289.971 804.096 284.572C810.786 279.782 823.633 267.387 830.551 259.098C833.516 255.524 841.422 245.106 848.111 235.981C864.38 213.701 871.373 205.564 892.127 184.957C906.418 170.661 924.815 153.551 925.879 153.399C926.031 153.399 918.962 160.471 910.219 169.14ZM924.359 164.578C899.805 191.801 880.116 215.146 865.52 234.384C840.281 267.615 826.37 281.151 807.593 290.58C802.5 293.165 801.587 292.709 806.453 290.047C817.019 284.344 831.615 271.949 842.106 259.783C845.831 255.372 853.661 245.563 859.514 237.806C871.829 221.457 884.449 206.173 899.12 189.748C912.804 174.463 932.797 153.399 933.709 153.399C934.166 153.399 929.908 158.418 924.359 164.578ZM919.19 164.502C894.559 190.128 875.782 212.028 856.702 237.654C845.451 252.711 839.977 259.402 832.603 266.702C822.721 276.512 812.838 284.496 805.768 288.222C803.564 289.363 802.576 289.743 803.64 288.983C824.241 274.003 832.527 265.486 853.433 237.426C867.04 219.1 872.057 213.017 886.881 196.82C897.904 184.653 927.932 154.16 928.844 154.16C929.072 154.16 924.739 158.798 919.19 164.502ZM936.674 154.54C936.674 154.692 934.698 157.202 932.265 160.015C929.832 162.905 918.429 176.668 906.951 190.66C887.109 214.842 882.092 221.229 865.292 243.129C846.895 267.007 831.539 281.074 814.359 289.667C805.236 294.306 803.716 294.382 811.622 289.819C831.387 278.565 843.398 266.55 871.069 230.582C887.261 209.519 919.114 171.802 931.657 158.874C936.142 154.236 936.674 153.78 936.674 154.54ZM938.423 156.593C919.95 180.09 897.676 208.91 884.753 226.02C864.836 252.407 859.894 258.262 849.708 267.995C840.433 276.816 832.375 282.747 822.569 287.994C813.37 292.861 812.23 292.861 820.364 287.994C838.913 276.816 849.404 266.398 874.794 233.624C896.08 206.173 937.282 155.833 938.499 155.757C938.879 155.681 938.803 156.137 938.423 156.593ZM832.527 156.745C832.527 156.897 830.247 158.418 827.434 160.091C818.16 165.566 804.932 175.68 798.699 181.915C786.155 194.614 778.021 208.682 763.502 242.369C754.683 262.9 751.11 270.733 750.73 270.353C750.654 270.2 754.607 259.859 759.625 247.312C774.904 208.834 783.419 193.246 795.962 180.699C803.032 173.703 808.581 169.749 822.873 161.688C832.299 156.365 832.527 156.213 832.527 156.745ZM941.996 157.886C941.996 158.57 891.899 225.488 876.695 244.954C858.07 268.984 840.889 283.432 821.428 291.492C812.002 295.37 812.382 294.61 822.417 289.515C842.866 279.021 857.538 265.562 877.455 238.947C884.373 229.746 896.612 213.625 904.746 203.131C912.88 192.637 924.207 178.037 929.832 170.661C938.879 158.798 941.996 155.529 941.996 157.886ZM10.7555 175.832C22.0064 200.85 36.0701 226.4 50.6658 248.452C60.9285 263.965 68.5304 273.698 81.8339 288.146C101.675 309.666 119.692 323.582 141.889 334.456C154.128 340.464 164.999 344.19 178.683 347.079C187.577 349.056 189.554 349.132 206.506 349.208C222.242 349.208 226.119 348.98 234.557 347.459C254.854 343.809 276.748 336.281 297.501 325.939C321.98 313.773 340.376 299.933 364.247 275.904L374.509 265.562L367.287 273.85C338.78 306.625 321.144 321.453 294.385 335.065C238.814 363.276 188.185 365.938 141.889 343.125C89.2078 317.119 44.5082 259.783 7.33466 170.433C4.59796 163.893 2.39339 158.342 2.46941 158.114C2.46941 157.43 3.30563 159.103 10.7555 175.832ZM934.318 174.083C912.576 205.717 885.361 242.749 874.718 255.296C862.783 269.364 849.176 280.618 835.568 287.538C825.229 292.861 821.656 293.774 830.931 288.755C843.778 281.835 855.485 272.482 866.812 260.087C869.777 256.817 886.577 234.993 904.214 211.572C944.2 158.418 943.82 158.874 944.2 159.179C944.352 159.331 939.943 166.022 934.318 174.083ZM943.44 166.479C932.341 184.881 900.945 230.43 887.033 248.376C879.431 258.186 865.292 272.558 857.614 278.261C850.62 283.432 841.27 288.907 835.188 291.34C826.75 294.686 826.75 294.23 835.188 289.971C851.228 281.835 867.04 267.919 883.156 247.692C896.612 230.734 925.499 190.964 942.756 165.414C944.656 162.677 946.329 160.547 946.481 160.699C946.633 160.852 945.264 163.437 943.44 166.479ZM6.57447 178.874C12.1239 191.953 26.6436 221.001 34.3216 234.384C42.7598 249.061 58.0397 272.178 65.6417 281.607C74.1559 292.253 91.2603 310.503 98.7862 317.119C146.527 358.638 196.623 370.424 254.398 353.695C264.053 350.881 280.929 344.114 291.496 338.867C316.582 326.244 330.722 315.598 354.06 291.568C364.399 280.998 365.843 279.706 361.586 284.953C330.418 323.354 306.472 341.984 269.374 356.889C246.948 365.938 226.651 370.12 204.986 370.12C188.413 370.12 176.782 368.219 160.514 362.82C105.856 344.722 58.2678 293.317 19.4218 210.431C13.0361 196.667 2.39339 171.802 2.39339 170.433C2.39339 169.216 3.15359 170.813 6.57447 178.874ZM825.153 175.3C814.739 184.957 802.271 200.546 793.453 214.842C791.097 218.72 785.547 228.833 781.062 237.274C770.951 256.589 761.829 273.242 760.537 274.915C759.929 275.599 762.133 270.885 765.402 264.421C768.671 257.958 775.893 243.357 781.366 232.103C793.377 207.389 799.611 197.58 809.645 187.542C815.803 181.459 828.194 171.041 829.487 170.965C829.715 170.889 827.738 172.866 825.153 175.3ZM989.584 174.843L991.788 177.353L989.356 175.148C986.999 173.018 986.467 172.41 987.075 172.41C987.227 172.41 988.291 173.551 989.584 174.843ZM1013.45 205.869C1018.32 211.496 1030.1 225.64 1039.68 237.274C1062.56 265.182 1071.76 275.447 1085.37 288.755C1114.71 317.347 1140.86 330.806 1172.41 333.62C1191.34 335.293 1209.13 331.491 1224.41 322.67C1231.1 318.791 1243.49 306.473 1248.73 298.64C1250.79 295.523 1252.76 292.557 1253.14 292.177C1254.21 290.884 1251.4 297.195 1247.52 304.724C1237.71 323.962 1227.3 335.217 1213.01 342.06C1202.74 347.003 1196.59 348.296 1182.98 348.372C1169.9 348.448 1162.76 347.307 1150.82 343.429C1117.75 332.631 1090.46 308.602 1049.34 254.156C1017.03 211.42 1006.92 198.797 992.549 183.74C983.578 174.311 983.654 174.387 994.069 184.881C999.922 190.812 1008.66 200.241 1013.45 205.869ZM936.598 182.067C924.739 203.131 908.547 228.301 896.612 244.27C876.087 271.721 855.485 288.146 833.592 294.458C827.054 296.359 823.557 296.663 829.258 294.838C834.428 293.165 842.486 289.439 848.339 286.017C870.157 273.09 890.302 249.897 925.879 196.515C932.721 186.174 938.575 177.733 938.727 177.733C938.955 177.733 937.966 179.71 936.598 182.067ZM993.385 189.291L995.589 191.801L993.157 189.596C990.8 187.466 990.268 186.858 990.876 186.858C991.028 186.858 992.092 187.999 993.385 189.291ZM999.466 196.135L1001.67 198.645L999.238 196.439C996.882 194.31 996.35 193.702 996.958 193.702C997.11 193.702 998.174 194.842 999.466 196.135ZM487.398 211.648C515.146 215.83 536.963 225.868 556.956 243.738C565.623 251.418 572.388 258.794 591.469 281.531C612.375 306.473 624.69 318.031 638.145 325.559C644.227 328.981 655.326 332.631 661.939 333.544L667.185 334.152L663.004 334.304C652.893 334.532 637.385 328.525 626.058 320.084C616.023 312.632 608.802 305.256 590.101 283.432C580.294 271.949 568.207 258.566 563.266 253.699C545.173 235.601 526.929 224.271 506.783 218.568C475.083 209.595 447.412 210.887 424.15 222.446C419.209 224.879 415.18 226.78 415.18 226.704C415.18 226.628 417.764 224.955 420.805 222.978C439.43 211.42 461.172 207.694 487.398 211.648ZM490.439 217.199C512.713 221.761 534.455 232.407 551.863 247.16C560.225 254.232 567.675 262.216 583.791 281.531C618.228 322.594 633.736 333.62 662.243 337.346L667.945 338.106L660.419 337.726C651.449 337.27 643.771 335.369 635.941 331.795C621.041 324.875 608.726 314.001 586.756 288.375C567.675 266.17 561.137 259.098 552.395 251.266C528.373 229.898 501.766 219.176 469.914 218.264C455.774 217.807 446.12 218.948 434.945 222.294C428.179 224.347 417.46 229.366 411.455 233.32C408.338 235.373 408.186 235.449 410.238 233.624C414.039 230.354 424.226 224.271 430.232 221.761C436.313 219.252 444.751 216.895 452.049 215.83C459.499 214.613 482.153 215.45 490.439 217.199ZM1015.96 223.51C1019.46 228.225 1028.58 241 1036.26 251.874C1063.78 290.808 1078.3 309.362 1093.58 325.179C1116.76 348.904 1138.81 362.136 1162.45 366.394C1170.89 367.915 1188.76 367.763 1196.66 366.09C1215.13 362.136 1229.88 352.174 1240.14 336.661C1246.15 327.536 1251.02 317.423 1259.68 296.131C1267.89 275.98 1273.29 264.573 1278.38 256.893C1293.13 234.613 1315.33 220.621 1343.38 216.058C1352.12 214.613 1369.83 214.994 1378.12 216.819C1402.98 222.218 1421.68 236.438 1432.17 257.806C1435.89 265.41 1439.62 275.599 1439.01 276.284C1438.78 276.436 1438.18 275.143 1437.64 273.394C1436.2 268.375 1430.57 257.729 1426.85 252.635C1413.24 234.461 1395.6 224.575 1371.35 221.761C1358.05 220.241 1340.72 222.218 1326.65 226.856C1301.49 235.221 1281.2 253.547 1268.04 279.782C1263.48 288.907 1261.51 293.85 1254.44 313.773C1251.47 322.289 1247.52 332.707 1245.69 336.89C1234.59 362.06 1220.99 375.443 1200.84 380.842C1192.56 383.123 1174.24 383.275 1164.89 381.298C1158.27 379.853 1148.54 376.66 1142.46 373.998C1127.41 367.459 1107.41 351.262 1091.6 332.935C1080.43 320.008 1070.32 305.94 1044.7 267.463C1031.39 247.616 1017.94 227.693 1014.75 223.13C1011.55 218.644 1009.12 214.994 1009.27 214.994C1009.5 214.994 1012.54 218.872 1015.96 223.51ZM489.755 222.902C512.409 227.769 529.437 236.057 547.15 250.962C556.348 258.642 564.026 266.855 579.99 286.093C594.51 303.431 609.41 318.868 617.772 325.179C624.614 330.274 635.104 335.445 642.858 337.498C646.659 338.486 652.741 339.247 659.203 339.627L669.465 340.159L662.091 340.768C644.759 342.289 628.795 336.966 613.439 324.571C605.609 318.259 594.738 306.853 579.078 288.375C556.804 262.216 542.285 248.68 527.233 240.012C492.796 220.165 449.389 217.275 418.601 232.636C415.256 234.308 411.607 236.362 410.467 237.198C409.25 238.035 408.338 238.491 408.338 238.263C408.338 237.502 417.08 231.951 422.554 229.138C429.471 225.716 437.606 222.902 445.36 221.457C454.862 219.708 478.352 220.393 489.755 222.902ZM1379.11 225.564C1405.33 231.495 1424.11 247.692 1433.77 272.786C1436.58 280.01 1437.57 284.496 1435.13 278.793C1429.43 265.638 1423.58 257.197 1413.47 247.616C1402.98 237.578 1389.98 231.039 1374.55 227.921C1363.9 225.716 1344.9 226.02 1335.4 228.605C1319.89 232.712 1310.23 238.339 1298 250.201C1284.46 263.357 1274.35 278.261 1266.6 296.511C1264.62 301.226 1259.91 314.153 1256.11 325.255C1243.26 363.048 1238.4 372.782 1226.16 384.72C1216.81 393.997 1207 398.18 1190.81 399.853C1175.53 401.526 1157.74 398.256 1143.14 391.108C1122.01 380.842 1104.53 364.493 1081.72 333.62C1072.07 320.464 1061.73 304.724 1042.49 273.774C1032.91 258.414 1023.49 243.281 1021.59 240.24C1019.61 237.274 1018.24 234.765 1018.47 234.765C1018.62 234.765 1025.92 245.487 1034.51 258.49C1074.12 318.563 1092.59 341.908 1114.1 359.398C1137.9 378.713 1162.98 387.23 1188.6 384.568C1199.25 383.504 1205.02 381.907 1213.01 378.105C1232.39 368.675 1242.96 352.934 1258.62 310.047C1262.72 298.944 1267.82 286.017 1270.1 281.227C1286.06 247.54 1312.29 228.605 1349.46 223.815C1355.16 223.13 1372.8 224.119 1379.11 225.564ZM486.182 227.845C509.52 232.559 528.145 241.913 546.314 258.11C555.436 266.322 563.114 274.687 578.698 293.317C598.007 316.586 608.042 326.092 620.889 333.696C632.216 340.311 641.414 342.897 654.261 343.049C658.899 343.049 664.676 342.897 667.185 342.593L671.746 342.136L667.565 343.201C657.454 345.863 641.87 345.33 632.064 341.908C615.643 336.281 604.317 326.624 577.558 295.599C549.506 263.128 535.367 250.429 516.666 241.076C500.398 232.94 477.516 227.921 456.306 227.921C441.254 227.921 427.115 231.039 415.788 236.742C413.735 237.806 412.139 238.415 412.139 238.187C412.139 237.35 424.302 231.799 430.308 229.898C441.711 226.248 446.956 225.64 463.072 225.944C474.399 226.172 479.872 226.628 486.182 227.845ZM722.147 307.537C721.387 307.689 720.17 307.689 719.486 307.537C718.726 307.309 719.334 307.157 720.779 307.157C722.223 307.157 722.831 307.309 722.147 307.537ZM673.494 337.194C672.734 337.346 671.518 337.346 670.834 337.194C670.073 336.966 670.682 336.814 672.126 336.814C673.57 336.814 674.178 336.966 673.494 337.194Z" fill="#101010"/>
</svg>
