<svg width="108" height="62" viewBox="0 0 108 62" fill="none" xmlns="http://www.w3.org/2000/svg">
<path d="M34.1599 2.6535C33.0399 3.82683 31.9199 5.5335 31.7599 6.38683C31.5465 7.50684 31.2799 7.82684 30.9065 7.4535C30.2665 6.8135 26.8532 6.70683 25.9465 7.2935C25.0399 7.88017 24.1332 9.8535 24.1332 11.3468C24.1332 12.6802 23.9732 12.8935 21.4665 14.8135C20.2932 15.7202 20.1865 16.1468 20.2932 18.8668C20.4532 23.2935 20.2399 23.8268 17.7865 23.7202C15.2798 23.6668 13.0932 25.0535 12.1332 27.3468C11.5998 28.5735 10.6398 29.3735 8.71984 30.2802C4.29317 32.4135 0.666504 37.0002 0.666504 40.6269C0.666504 43.0269 3.22651 47.0802 6.05317 49.1069C9.99984 52.0402 14.7465 53.3735 20.9332 53.3735C23.7065 53.3735 27.1732 53.1069 28.6665 52.7335C33.8932 51.5602 39.1732 48.0935 40.9865 44.6269C41.9465 42.7602 41.9465 38.4935 40.9332 36.5735C40.1865 35.1335 40.2399 34.9735 41.6265 33.7469C42.4265 33.0535 43.6532 32.3069 44.3999 32.1469C47.4399 31.4535 48.8265 30.6002 49.5732 28.9469C50.6932 26.6535 50.1599 24.7868 48.0265 23.7735L46.2665 22.8668H49.3599C53.0399 22.8668 54.2132 22.3335 55.3332 20.2002C56.5065 17.9602 56.3465 16.3068 54.7999 14.8668L53.4665 13.5868L54.7465 12.2535C57.7332 9.00017 57.7332 5.96017 54.7999 2.8135C53.3065 1.2135 52.7732 1.00016 50.4265 1.00016C48.4532 1.00016 47.2265 1.3735 45.7332 2.38683C43.9732 3.56017 43.6532 3.6135 43.2265 2.92017C42.2132 1.0535 41.0399 0.466831 38.6932 0.466831C36.5065 0.466831 35.9732 0.733498 34.1599 2.6535ZM40.9332 3.40017C41.6799 4.0935 42.2665 4.94683 42.2665 5.26683C42.2665 6.22683 44.1332 5.8535 45.9999 4.46684C49.4665 1.90683 52.6665 2.1735 54.2665 5.26683C55.4932 7.6135 55.2265 8.94683 53.1999 10.8135C50.9065 12.9468 50.6932 14.9202 52.6665 15.8268C53.5732 16.2535 53.9999 16.8935 53.9999 17.7468C53.9999 19.9868 52.7199 20.7335 48.6665 20.7335C46.0532 20.7335 44.7732 20.9468 44.1865 21.5868C42.9599 22.7602 43.1199 23.3468 44.9865 24.3602C45.8932 24.8402 47.1199 25.6402 47.7065 26.0668C48.7199 26.8668 48.7199 26.9202 47.6532 28.2535C47.0665 29.0535 45.7865 29.8002 44.8265 30.0135C43.8665 30.1735 42.2132 30.9735 41.1465 31.7202L39.1732 33.0535L37.4132 31.9869C32.2932 28.8402 27.2799 33.0002 31.8665 36.5202C35.1732 39.0269 34.1065 41.0002 29.4665 41.0002C26.2132 41.0002 23.9732 41.9069 23.7065 43.2935C23.4932 44.2535 24.8799 44.5735 25.4665 43.6669C25.6265 43.4002 27.2799 43.1335 29.0932 43.1335C35.5999 43.1335 37.9465 39.6669 33.9999 35.8802C32.0265 34.0669 31.7599 33.3202 32.7199 32.6802C33.4132 32.2535 36.1865 34.8135 37.2532 36.8402C38.3199 38.9202 38.2132 43.0802 36.9865 44.8935C34.5332 48.6269 29.6265 51.1869 23.4932 51.9335L20.3999 52.3069V49.6402C20.3999 46.6535 22.3732 40.2535 24.7732 35.4002C29.0399 26.8135 37.5732 16.5735 45.0399 11.0268C47.0665 9.5335 48.5599 8.20017 48.3999 8.04017C48.0265 7.66684 42.4799 11.9335 38.5865 15.6135C30.8532 22.9735 22.0532 35.8802 17.9465 46.0135C16.5598 49.3735 15.5998 51.1335 15.0132 51.1335C13.4665 51.1335 8.71984 48.4135 7.11984 46.5469C4.87984 43.9869 4.07984 41.0535 4.87984 38.3335C5.57317 35.9869 8.29318 33.0002 10.7998 31.6669C12.2398 30.9202 12.3998 30.9202 12.3998 31.6669C12.3998 32.0935 12.1332 32.4669 11.7598 32.4669C10.7465 32.4669 7.59984 35.1335 6.47984 36.9469C4.93317 39.5069 5.25317 39.8269 7.33318 37.6935C9.57318 35.4535 12.6665 33.8535 13.8932 34.3335C14.5865 34.6002 14.1598 35.0269 12.1332 36.0402C8.98651 37.6402 7.22651 39.1335 6.21317 41.1069C5.19984 43.0269 5.94651 43.0269 7.81318 41.0535C9.30651 39.5069 12.7732 37.7469 15.7598 37.0535C17.2532 36.6802 17.2532 36.7335 17.4132 39.4002C17.4665 40.2002 17.7865 40.7335 18.2665 40.7335C18.8532 40.7335 19.1199 40.0402 19.2265 38.4402C19.3865 36.2002 19.2265 35.9335 16.6132 33.5335C14.3732 31.4535 13.8398 30.6535 13.8398 29.2669C13.8398 27.0268 15.7598 25.4268 17.9999 25.6935C20.1865 26.0135 20.8265 25.6935 21.7865 23.7735C22.4265 22.6002 22.5865 21.3735 22.3199 19.3468C21.9999 16.6268 22.0532 16.5735 23.8132 15.5068C25.2532 14.6535 25.6265 14.0668 25.8932 12.2535C26.0532 11.0268 26.4799 9.6935 26.7999 9.26684C27.7599 8.14684 29.3065 8.30684 29.9999 9.5335C30.8532 11.1335 32.5599 10.9202 32.9865 9.10684C33.7332 6.1735 35.3865 3.6135 37.0932 2.86683C39.3865 1.8535 39.4399 1.8535 40.9332 3.40017Z" fill="#5D5D5D"/>
<path d="M54.1068 28.0405C51.5468 30.2271 53.0935 35.1338 56.2935 35.1338C58.2135 35.1338 59.8668 33.2671 59.8668 31.1338C59.8668 27.7205 56.5601 25.9604 54.1068 28.0405ZM57.9468 28.5205C59.0668 29.5871 59.0135 32.4138 57.8935 33.6405C56.1335 35.6138 54.0001 34.2805 54.0001 31.1338C54.0001 28.0405 56.1335 26.6538 57.9468 28.5205Z" fill="#5D5D5D"/>
<path d="M63.3866 29.0005C62.9066 30.1738 62.1066 31.9871 61.5733 33.0005L60.6133 34.9205L61.9466 35.0271C62.9599 35.0805 63.1199 34.9738 62.5866 34.6538C61.3599 33.8538 62.3199 32.3605 63.9733 32.5738C65.1466 32.6805 65.4666 33.0005 65.4133 33.9071C65.4133 34.8671 65.68 35.1338 66.6933 35.1338C67.7066 35.1338 67.8666 34.9738 67.44 34.4405C67.12 34.0671 66.2666 32.2538 65.5733 30.3338L64.24 26.8671L63.3866 29.0005ZM64.6666 31.2405C64.6666 31.6138 64.2933 31.9338 63.8666 31.9338C63.0133 31.9338 62.8533 31.4538 63.3866 30.0671C63.6533 29.3738 63.8133 29.3205 64.1866 29.9071C64.4533 30.2805 64.6666 30.9205 64.6666 31.2405Z" fill="#5D5D5D"/>
<path d="M68.9335 27.9335C69.3601 28.4669 69.5201 29.8535 69.3601 31.8802C69.2001 34.5469 69.2535 35.0269 70.0001 34.9735C70.6401 34.9202 70.8001 34.4402 70.6401 33.0535L70.4801 31.1335L72.2401 33.1602C74.6935 35.9335 75.8135 35.6669 73.5201 32.8402L71.6001 30.4935L73.2001 29.0002C74.0535 28.1469 75.0668 27.6669 75.5468 27.8269C75.9735 27.9869 76.8268 29.5869 77.5201 31.3469C78.1601 33.1602 78.8535 34.6002 79.0668 34.6002C79.2801 34.6002 80.0268 33.2135 80.6668 31.5069C81.3601 29.8535 82.1601 28.1469 82.4268 27.7735C82.8001 27.2935 82.6401 27.1335 81.8401 27.1335C81.0935 27.1335 80.8268 27.4002 80.9868 28.0935C81.1468 28.5735 80.8268 29.9602 80.3468 31.1335L79.4401 33.2669L78.6401 31.4002C78.2135 30.3869 77.8401 29.0002 77.7868 28.3602C77.7335 27.2935 77.4668 27.1335 75.2268 27.1335C73.3601 27.1335 72.7735 27.2935 72.9868 27.8269C73.0935 28.2002 72.6135 29.1069 71.8668 29.8002L70.5335 31.0269V29.4269C70.5335 28.5202 70.8535 27.6135 71.2268 27.5069C71.5468 27.3469 71.0668 27.1869 70.0535 27.1869C68.5068 27.1335 68.3468 27.2402 68.9335 27.9335Z" fill="#5D5D5D"/>
<path d="M83.7599 27.5072C84.1866 27.6672 84.3999 28.9472 84.3999 31.1339C84.3999 33.3205 84.1866 34.6005 83.7599 34.7605C83.3866 34.9205 83.9199 35.0805 84.9333 35.0805C86.3199 35.1339 86.5866 34.9739 86.1066 34.4939C85.2533 33.6405 85.2533 27.8272 86.1599 27.5072C86.4799 27.3472 85.9466 27.2405 84.9333 27.2405C83.9199 27.2405 83.3866 27.3472 83.7599 27.5072Z" fill="#5D5D5D"/>
<path d="M88.3999 31.0803C88.3999 34.8136 88.4532 34.9736 89.6266 34.9736C90.5332 34.9736 90.6932 34.8136 90.3199 34.4403C89.5199 33.6403 89.5732 28.5736 90.3732 27.7736C90.8532 27.2936 90.7466 27.1336 89.7332 27.1336C88.4532 27.1336 88.3999 27.2403 88.3999 31.0803Z" fill="#5D5D5D"/>
<path d="M94.96 27.7738C95.76 28.5738 95.8133 33.6405 95.0133 34.4405C94.5333 34.9205 95.12 35.0272 97.2533 34.9738C99.92 34.8672 100.133 34.7605 100.293 33.5338L100.453 32.2005L99.6 33.3738C99.12 34.0672 98.2667 34.6005 97.68 34.6005C96.6667 34.6005 96.6133 34.3338 96.7733 30.8672C96.9333 27.1872 96.88 27.1338 95.6533 27.1338C94.5867 27.1338 94.48 27.2938 94.96 27.7738Z" fill="#5D5D5D"/>
<path d="M101.894 30.6537C102.054 33.0537 101.894 34.3337 101.467 34.6003C101.094 34.8137 102.214 34.9737 103.92 34.9203C106.587 34.867 107.067 34.707 107.28 33.8003C107.44 32.787 107.44 32.7337 106.374 33.6937C104.88 35.0803 103.387 34.6537 103.174 32.8403C103.014 31.7203 103.227 31.4003 104.08 31.4003C104.614 31.4003 105.254 31.7203 105.36 32.0403C105.52 32.4137 105.68 32.0403 105.68 31.187C105.734 29.9603 105.574 29.747 105.094 30.227C103.974 31.347 103.067 30.9203 103.067 29.267C103.067 27.9337 103.28 27.667 104.294 27.667C104.987 27.667 105.787 27.9337 106.16 28.307C106.64 28.787 106.8 28.7337 106.8 28.0403C106.8 27.2937 106.32 27.1337 104.294 27.1337H101.734L101.894 30.6537Z" fill="#5D5D5D"/>
<path d="M92.2936 34.1205C91.3869 35.0805 91.3869 35.1338 92.3469 35.1338C92.8803 35.1338 93.4669 34.6538 93.6269 34.0671C93.9469 32.7338 93.5203 32.7871 92.2936 34.1205Z" fill="#5D5D5D"/>
<path d="M53.8934 37.6403C50.9067 41.0003 54.48 46.547 57.7867 43.667L59.0667 42.547L57.6267 43.4003C56.2934 44.2003 56.1334 44.2003 55.12 43.187C53.8934 41.9603 53.6267 38.9203 54.64 37.907C55.7067 36.8403 57.52 37.1603 58.16 38.4403L58.7467 39.667V38.2803C58.8 37.107 58.5867 36.947 56.7734 36.8403C55.3867 36.7337 54.48 37.0003 53.8934 37.6403Z" fill="#5D5D5D"/>
<path d="M60.2934 37.3735C61.1467 38.2268 61.1467 43.5068 60.2934 43.8268C59.92 43.9868 60.24 44.1468 60.9867 44.1468C62.2134 44.2001 62.32 44.0401 62.1067 42.5468C61.9467 41.4801 62.1067 40.7335 62.5867 40.4135C63.2267 40.0401 63.2267 39.9335 62.5867 39.9335C62.1067 39.9335 61.9467 39.4535 62.1067 38.3335C62.32 36.8935 62.2134 36.7335 60.9867 36.7335C59.9734 36.7335 59.8134 36.8935 60.2934 37.3735Z" fill="#5D5D5D"/>
<path d="M64.9336 40.4672C64.9336 44.0939 64.9869 44.2005 66.2669 44.1472C67.0136 44.1472 67.2803 43.9872 66.9603 43.8272C66.5336 43.6672 66.2669 42.4405 66.2669 40.4672C66.2669 38.4939 66.5336 37.2672 66.9603 37.1072C67.2803 36.9472 67.0136 36.7872 66.2669 36.7872C64.9869 36.7339 64.9336 36.8405 64.9336 40.4672Z" fill="#5D5D5D"/>
<path d="M70.5335 39.1869C69.9468 40.5202 69.4668 41.8002 69.4668 42.0669C69.4668 42.3335 69.0935 42.9202 68.6135 43.3469C67.8668 44.1469 67.9201 44.2002 69.3068 44.2002C70.2668 44.2002 70.5868 44.0402 70.1068 43.7735C69.5735 43.4002 69.6268 42.8135 70.4801 40.9469C71.3335 38.9735 71.5468 38.7602 71.8668 39.6669C72.0801 40.2535 72.4535 41.2669 72.7735 41.9069C73.0935 42.4935 73.1468 43.2935 72.9868 43.6135C72.7201 43.9869 73.1468 44.2002 74.1068 44.2002C74.9068 44.2002 75.3335 43.9869 75.0135 43.7735C74.6935 43.5602 73.8401 41.9069 73.2001 40.0402C72.5601 38.2269 71.9201 36.7335 71.7601 36.7335C71.6535 36.7335 71.0668 37.8535 70.5335 39.1869Z" fill="#5D5D5D"/>
<path d="M76.2936 37.3735C77.1469 38.2268 77.1469 43.5068 76.2936 43.8268C75.9202 43.9868 76.3469 44.0935 77.2002 44.0935C78.1069 44.0935 78.4802 43.9868 78.1602 43.8268C77.7336 43.6668 77.4669 42.5468 77.5202 40.8401L77.5736 38.0668L78.6402 41.2668L79.7602 44.4668L81.2536 41.2668L82.6936 38.0668L82.7469 40.8401C82.8002 42.5468 82.5336 43.6668 82.1602 43.8268C81.7869 43.9868 82.0536 44.1468 82.8002 44.1468C84.0802 44.2001 84.1336 44.0935 84.1336 40.4668C84.1336 35.7735 83.0669 35.4001 81.3602 39.5601L80.2402 42.3335L79.6536 40.8401C79.3336 40.0401 78.8536 38.8135 78.5336 38.0668C78.2136 37.2135 77.6269 36.7335 76.8269 36.7335C75.9202 36.7335 75.8136 36.8935 76.2936 37.3735Z" fill="#5D5D5D"/>
<path d="M86.4267 37.1067C86.8 37.2667 87.0667 38.4934 87.0667 40.4667C87.0667 42.4401 86.8 43.6667 86.4267 43.8801C86.0533 44.0401 86.9067 44.0934 88.3467 44.0401C91.5467 43.9334 92.6133 42.7067 91.12 41.1067C90.5333 40.4134 90.3733 39.9334 90.7467 39.6667C91.6 39.1334 91.44 37.4267 90.48 37.0534C90 36.8934 88.7733 36.7334 87.7067 36.7867C86.64 36.7867 86.0533 36.9467 86.4267 37.1067ZM90 38.6001C90 39.1867 89.5733 39.7201 89.0933 39.8267C88.3467 39.9867 88.1333 39.6667 88.1333 38.6001C88.1333 37.5334 88.3467 37.2134 89.0933 37.3734C89.5733 37.4801 90 38.0134 90 38.6001ZM90.2133 41.2134C91.0133 42.1734 90.3733 43.6667 89.1467 43.6667C88.4 43.6667 88.1333 43.2934 88.1333 42.0667C88.1333 40.3601 89.1467 39.9334 90.2133 41.2134Z" fill="#5D5D5D"/>
<path d="M93.3601 37.1068C93.7334 37.2668 94.0001 38.4934 94.0001 40.4668C94.0001 42.4401 93.7334 43.6668 93.3601 43.8268C92.9867 43.9868 94.1601 44.1468 96.0268 44.1468C99.1201 44.2001 99.3334 44.1468 99.3334 42.9734C99.2801 41.9068 99.2268 41.9068 98.7468 42.7068C98.4268 43.2934 97.5734 43.6668 96.6668 43.6668C95.2267 43.6668 95.0667 43.5068 95.0667 42.0668C95.0667 40.4134 95.9734 39.9868 97.0934 41.1068C97.5734 41.5868 97.7334 41.4268 97.7334 40.2001C97.7334 38.9734 97.5734 38.8134 97.0934 39.2934C96.0268 40.3601 95.0667 40.0401 95.0667 38.6001C95.0667 37.5868 95.3334 37.2668 96.2934 37.2668C96.9868 37.2668 97.7868 37.5334 98.1601 37.9068C98.6401 38.3868 98.8001 38.3334 98.8001 37.6401C98.8001 36.8934 98.2668 36.7334 95.7601 36.7868C94.0534 36.7868 92.9867 36.9468 93.3601 37.1068Z" fill="#5D5D5D"/>
<path d="M100.667 40.4669C100.667 44.0935 100.72 44.2002 102 44.1469C102.747 44.1469 103.014 43.9869 102.694 43.8269C101.894 43.5602 101.734 41.0002 102.48 41.0002C102.747 41.0002 103.494 41.6935 104.134 42.6002C104.774 43.4535 105.627 44.2002 106.107 44.2002C106.694 44.2002 106.534 43.7735 105.467 42.4935C104.24 41.0535 104.187 40.7335 104.88 40.3602C105.894 39.7735 106 38.2802 105.094 37.3735C104.72 37.0002 103.6 36.7335 102.587 36.7335H100.667V40.4669ZM104.454 38.0669C104.827 39.0269 103.814 40.4669 102.747 40.4669C102.267 40.4669 102 39.8802 102 38.8669C102 37.6402 102.214 37.2669 103.067 37.2669C103.654 37.2669 104.294 37.6402 104.454 38.0669Z" fill="#5D5D5D"/>
<path d="M1.3601 47.1338C2.58677 51.1338 7.97344 54.9205 14.5334 56.4671C21.8935 58.2271 34.7468 56.2005 34.1601 53.3738C33.9468 52.3071 32.9868 52.3605 28.9335 53.4805C27.2801 53.9605 23.9735 54.3338 21.2001 54.3338C13.0401 54.3338 6.74678 52.0405 2.90677 47.6671L0.773438 45.2138L1.3601 47.1338Z" fill="#5D5D5D"/>
<path d="M80.6134 48.5735C80.2401 49.2135 79.6001 50.3335 79.1734 50.9735C78.7468 51.6669 78.5334 52.2002 78.7468 52.2002C79.2268 52.2002 81.8401 47.8802 81.5734 47.5602C81.4134 47.4002 80.9868 47.8802 80.6134 48.5735Z" fill="#5D5D5D"/>
<path d="M1.41339 50.8669C4.08006 57.2669 11.5467 60.8936 21.7334 60.8402C28.9867 60.7869 35.8668 58.3336 33.9468 56.4669C33.6801 56.2002 31.8667 56.4669 29.7334 57.0536C27.3334 57.6936 24.3467 58.0669 21.2001 58.0669C12.9334 58.0669 6.80006 55.7736 2.80006 51.2936L0.560059 48.7336L1.41339 50.8669Z" fill="#5D5D5D"/>
<path d="M53.8935 55.2405C53.4669 55.7739 52.9335 56.6272 52.7735 57.1605C52.2935 58.3872 53.3602 60.6272 54.6402 61.0005C55.8669 61.4272 57.7335 60.8405 57.7335 60.0939C57.7335 59.7739 57.4135 59.7739 56.9335 60.2005C55.1202 61.6939 52.9869 58.9205 53.9469 56.3072C54.5869 54.6539 56.3469 54.3872 57.1469 55.7739C57.6269 56.6272 57.6802 56.6272 57.7335 55.8805C57.7335 54.2272 55.1202 53.8005 53.8935 55.2405Z" fill="#5D5D5D"/>
<path d="M59.7068 55.2935C58.5335 56.6269 58.5868 59.2935 59.7601 60.3602C61.8935 62.2802 64.6668 60.7335 64.6668 57.6935C64.6668 54.8135 61.5202 53.2669 59.7068 55.2935ZM62.9602 55.5069C63.9202 56.4669 63.7602 60.1469 62.7468 60.5735C61.3602 61.1069 60.1335 59.9869 59.9735 58.1202C59.7068 55.4535 61.4135 53.9602 62.9602 55.5069Z" fill="#5D5D5D"/>
<path d="M66.6403 55.5072C67.227 56.2005 68.027 57.6405 68.4003 58.7605C68.7736 59.9872 69.2536 60.6272 69.5203 60.3605C70.267 59.6139 67.547 54.3339 66.427 54.3339C65.6803 54.3339 65.6803 54.4939 66.6403 55.5072Z" fill="#5D5D5D"/>
<path d="M71.5468 54.7071C71.5468 54.9738 71.4401 56.5204 71.4401 58.1738C71.3335 60.6271 71.4935 61.2671 72.1335 61.2671C72.7735 61.2671 72.9335 60.5204 72.9335 57.8004C72.9335 55.4004 72.7201 54.3338 72.2935 54.3338C71.9201 54.3338 71.6001 54.4938 71.5468 54.7071Z" fill="#5D5D5D"/>
<path d="M75.1733 55.3471C75.8133 55.8804 76.6133 57.2671 76.9867 58.4938C77.5733 60.4671 78.5333 61.5338 78.5333 60.2538C78.5333 59.9871 78.6933 59.2938 78.8533 58.7604C79.0667 58.0671 79.0133 57.9604 78.64 58.5471C78.2667 59.0804 77.8933 58.6538 77.2 56.7871C76.5067 54.9204 75.9733 54.3337 75.12 54.3337L74 54.3871L75.1733 55.3471Z" fill="#5D5D5D"/>
<path d="M79.7067 55.6671C78.8534 57.4804 78.9067 57.9604 79.7601 56.7871C80.3467 55.9338 80.4534 55.9871 80.5601 57.2138C80.6134 57.9604 80.4001 59.1871 80.1334 59.9338C79.7067 61.0538 79.7601 61.2671 80.6134 61.2671C81.4667 61.2671 81.5201 60.9471 81.3067 58.6004C81.1467 56.8938 81.3067 55.6671 81.7334 55.1338C82.2667 54.4938 82.2134 54.3338 81.3601 54.3338C80.7734 54.3338 80.0267 54.9204 79.7067 55.6671Z" fill="#5D5D5D"/>
<path d="M83.6001 57.8004C83.6001 60.5738 83.7601 61.2671 84.4534 61.2671C85.0934 61.2671 85.2001 60.8404 85.0401 59.5604C84.8268 58.0671 84.9334 57.9604 85.9468 58.2271C86.8534 58.4404 87.0668 58.2804 87.0134 57.3738C87.0134 56.7338 86.8534 56.5204 86.6934 56.8404C86.2134 58.0671 84.9334 57.5871 84.9334 56.2004C84.9334 54.7071 86.3201 54.3871 87.5468 55.5071C88.1334 56.0938 88.2401 56.0404 88.0268 55.4004C87.8668 54.9204 86.9601 54.5471 85.6801 54.4404L83.6001 54.2804V57.8004Z" fill="#5D5D5D"/>
<path d="M90 57.8004C90 60.8404 90.1067 61.2671 91.0133 61.2671C91.8133 61.2671 91.8667 61.1071 91.3333 60.5204C90.96 59.9871 90.9067 59.4004 91.2267 58.8138C91.6533 58.0671 91.8667 58.1738 92.88 59.6138C93.52 60.5204 94.32 61.2671 94.5867 61.2671C94.9067 61.2671 94.5867 60.5204 93.9467 59.5604C93.0933 58.4404 92.9333 57.8004 93.36 57.6404C94.32 57.3204 94.16 55.0271 93.1467 54.6538C92.6667 54.4938 91.8133 54.3338 91.1733 54.3338C90.1067 54.3338 90 54.6004 90 57.8004ZM92.8267 56.3604C92.9867 57.2138 92.72 57.5338 91.9733 57.5338C91.2267 57.5338 90.96 57.2138 91.0667 56.3071C91.2267 54.7604 91.2267 54.7604 92.0267 54.9738C92.3467 55.1338 92.72 55.7204 92.8267 56.3604Z" fill="#5D5D5D"/>
<path d="M96.9867 55.1336C95.76 56.4136 95.4934 57.9069 96.24 59.5069C97.0934 61.3202 99.3334 61.7469 100.453 60.3602C101.147 59.5069 101.093 59.4536 100.293 60.0936C98.96 61.1602 97.3067 60.4136 96.9334 58.6002C96.2934 55.6669 99.0134 53.4802 100.347 55.7736C100.827 56.6269 100.88 56.6269 100.933 55.8802C100.933 54.2802 98.32 53.8002 96.9867 55.1336Z" fill="#5D5D5D"/>
<path d="M102.427 55.1336C102.64 55.6136 102.693 57.1603 102.533 58.6536L102.16 61.3203L104.613 61.1603C106.587 61.0536 107.12 60.787 107.227 59.9336C107.44 58.9203 107.387 58.9203 106.693 59.8803C105.68 61.1603 103.92 60.787 103.707 59.187C103.547 58.1203 103.707 57.9603 104.613 58.227C105.307 58.387 105.733 58.227 105.733 57.8003C105.733 57.3736 105.307 57.2136 104.667 57.3736C103.813 57.587 103.6 57.3736 103.6 56.2536C103.6 54.7603 104.987 54.3336 106.16 55.507C106.64 55.987 106.8 55.9336 106.8 55.2403C106.8 54.4936 106.32 54.3336 104.4 54.3336C102.32 54.3336 102 54.4936 102.427 55.1336Z" fill="#5D5D5D"/>
<path d="M75.3337 58.7604C75.3337 59.4538 75.067 60.2538 74.6937 60.6271C74.2137 61.1071 74.267 61.2671 75.1204 61.2671C76.027 61.2671 76.1337 61.0004 75.9737 59.4004C75.707 57.2671 75.3337 56.8938 75.3337 58.7604Z" fill="#5D5D5D"/>
<path d="M66.107 60.2004C65.8936 61.0004 66.107 61.2671 66.907 61.2671C67.867 61.2671 67.9203 61.1604 67.2803 60.3071C66.907 59.8271 66.5336 59.3471 66.4803 59.2404C66.427 59.1871 66.267 59.5604 66.107 60.2004Z" fill="#5D5D5D"/>
<path d="M87.0669 60.5738C85.7869 61.2138 85.7869 61.2671 86.9069 61.2671C87.5469 61.2671 88.2403 61.0004 88.4003 60.6804C88.9869 59.8271 88.5069 59.7738 87.0669 60.5738Z" fill="#5D5D5D"/>
</svg>
