<svg width="54" height="93" viewBox="0 0 54 93" fill="none" xmlns="http://www.w3.org/2000/svg">
<path d="M6.7869 1.80007C6.73356 2.9734 6.9469 4.68007 7.21356 5.64007C8.0669 8.57341 7.05356 8.14674 6.09356 5.16007C5.13356 2.12007 4.7069 3.56007 5.61356 6.76007C6.04023 8.25341 5.61356 9.16007 4.97356 8.04007C4.7069 7.56007 5.0269 8.7334 5.5069 9.90674C5.8269 10.7601 5.77356 10.7601 4.97356 10.1201C4.33356 9.58674 4.06689 9.58674 4.06689 10.0667C4.06689 11.4534 7.32023 18.7067 9.08023 21.2667C10.0936 22.7601 11.5869 26.0134 12.3336 28.4668C13.7736 33.2668 15.8002 36.3601 16.8669 35.3468C17.2936 34.9201 17.0802 34.0668 16.1202 32.1468C12.9736 25.8001 12.5469 21.0001 14.7336 16.8401C16.1736 14.2267 16.0669 13.5334 14.0936 10.3867C13.1336 8.94674 12.2269 6.6534 12.0136 5.32007L11.6936 2.86673L11.5869 5.10674C11.4802 8.46674 10.6269 7.88007 10.0936 4.04007L9.61357 0.733398L9.13357 3.9334L8.7069 7.13341L7.7469 3.40007C6.89356 -0.0132675 6.84023 -0.119934 6.7869 1.80007Z" fill="#5D5D5D"/>
<path d="M15.7467 17.9069C15.2667 18.4402 15 20.1469 15 22.5469C15 25.8002 15.2667 26.9202 16.92 30.3869C18.7867 34.2803 18.84 34.5469 18.0934 36.0936C17.08 38.1736 15.6934 39.0803 11.8534 40.2003C10.2 40.6803 8.8667 41.2669 8.8667 41.4269C8.8667 41.6403 9.56003 42.1203 10.4667 42.4936C12.1734 43.2936 13.24 43.0803 16.5467 41.4269C17.72 40.8403 20.8134 39.9869 23.48 39.5603C26.0934 39.1336 29.4 38.3336 30.7334 37.8003C32.0667 37.2136 35.5334 36.1469 38.4667 35.4536C44.7067 33.9069 47.9601 32.6269 47.5334 31.9336C47.3734 31.6669 47.4801 31.3469 47.8001 31.1336C48.0667 30.9736 48.3334 30.5469 48.3334 30.2269C48.3334 29.9069 47.9067 29.9602 47.4267 30.4402C44.6001 32.9469 37.5601 35.1336 32.4934 35.1336C29.08 35.1336 28.0667 34.5469 28.0667 32.6269C28.0667 31.6669 27.7467 31.4002 26.6267 31.4002C23.8534 31.4002 18.36 23.9336 17.56 18.9736C17.24 16.7869 16.8134 16.5736 15.7467 17.9069Z" fill="#5D5D5D"/>
<path d="M29.6668 32.2001C28.7068 33.3734 29.7201 34.2801 31.3201 33.7467C32.0135 33.5334 32.7601 33.3734 33.0268 33.4267C34.0935 33.6934 33.2401 32.3601 32.0135 31.9334C30.3068 31.2934 30.4668 31.2401 29.6668 32.2001Z" fill="#5D5D5D"/>
<path d="M0.866731 71.8803C-0.41327 74.2803 1.02673 76.787 3.58673 76.6803C4.6534 76.627 4.60007 76.5736 3.16007 76.147C0.0133973 75.2403 0.226731 71.7203 3.42673 71.2403C4.76007 71.027 4.70673 71.027 3.16007 70.9203C1.9334 70.867 1.2934 71.187 0.866731 71.8803Z" fill="#5D5D5D"/>
<path d="M38.3066 72.2535C37.9333 72.6802 37.88 73.0002 38.1466 73.0002C38.4133 73.0002 38.7333 73.8002 38.84 74.7069C38.9466 75.9869 39.32 76.5202 40.0666 76.6269C41.0266 76.7335 41.0266 76.7335 40.2266 76.2002C39.16 75.5602 38.9466 73.2135 39.8533 72.8935C40.28 72.7335 40.2266 72.5202 39.7466 72.0935C39.16 71.6669 38.84 71.7202 38.3066 72.2535Z" fill="#5D5D5D"/>
<path d="M5.88019 73.8004C5.29353 76.2004 7.85353 77.8004 9.4002 75.9871C10.1469 75.0271 9.93353 72.8938 8.97353 72.5738C8.38686 72.4138 8.38686 72.5738 8.9202 73.4271C9.77353 74.7604 9.18686 76.2004 7.85353 76.2004C6.36019 76.2004 5.77353 74.0671 7.05353 73.1604C7.90686 72.5204 7.90686 72.4671 7.10686 72.4671C6.62686 72.4671 6.09353 73.0538 5.88019 73.8004Z" fill="#5D5D5D"/>
<path d="M11.587 74.8136C11.6937 76.6269 11.747 76.7336 11.907 75.4002C12.067 74.4936 12.387 73.5336 12.6537 73.2136C12.9203 72.8402 12.8137 72.6269 12.3337 72.6269C11.747 72.6269 11.5337 73.2136 11.587 74.8136Z" fill="#5D5D5D"/>
<path d="M14.0404 73.0534C14.3604 73.48 14.7337 74.4934 14.8937 75.4C15.1071 76.6267 15.1071 76.4667 15.0537 74.92C15.0004 73.5867 14.7337 72.7334 14.2004 72.5734C13.5604 72.36 13.5071 72.4667 14.0404 73.0534Z" fill="#5D5D5D"/>
<path d="M16.5468 73.107C16.3334 73.4803 16.6534 74.067 17.2934 74.4937C18.7334 75.4003 18.7868 76.0403 17.5601 76.3603C16.6534 76.5737 16.6534 76.627 17.5601 76.6803C18.8934 76.7337 19.3734 75.1337 18.3068 74.3337C17.1334 73.4803 17.1868 73.1603 18.3601 72.8403C19.0534 72.627 19.0001 72.5737 18.0934 72.5203C17.4534 72.5203 16.7601 72.7337 16.5468 73.107Z" fill="#5D5D5D"/>
<path d="M20.4935 73.8C19.7468 75.4534 20.7068 76.7334 22.6802 76.68C23.8002 76.6267 23.8535 76.5734 23.0002 76.36C22.4135 76.2 21.6135 75.8267 21.1868 75.4534C20.5468 74.9734 20.8135 74.8134 22.4135 74.6C24.2802 74.3334 24.3335 74.28 23.5335 73.2667C22.8935 72.4134 22.7868 72.36 23.0535 73.1067C23.3202 73.8534 23.1068 74.0667 22.2002 74.0667C21.3468 74.0667 21.1335 73.8534 21.3468 73.2667C21.8268 71.9334 21.1335 72.36 20.4935 73.8Z" fill="#5D5D5D"/>
<path d="M25.4533 74.707C25.56 76.5204 25.6133 76.6804 25.7733 75.4004C25.88 74.4937 26.4133 73.4804 26.8933 73.107C27.64 72.5204 27.5867 72.467 26.5733 72.467C25.56 72.467 25.4 72.7337 25.4533 74.707Z" fill="#5D5D5D"/>
<path d="M29.3468 74.44C30.2534 77.0533 30.9468 77.16 31.6934 74.76C32.4401 72.3067 32.1201 71.8267 31.3201 74.1733L30.6801 75.9333L29.9334 74.1733C28.9201 71.8267 28.4934 71.9867 29.3468 74.44Z" fill="#5D5D5D"/>
<path d="M34.8933 72.8403C35.5333 72.947 36.0666 73.267 36.0666 73.5337C36.0666 73.8003 35.5333 74.067 34.8933 74.1737C33.5066 74.3337 33.1333 76.4137 34.4666 76.5203C35 76.5737 35 76.467 34.5733 76.3603C33.6666 76.0403 34.04 74.9203 35.16 74.707C35.8 74.6003 36.0666 74.867 36.0666 75.6137C36.0666 76.947 36.92 77.107 37.0266 75.7737C37.1333 73.427 36.6 72.467 35.1066 72.5203C33.88 72.627 33.8266 72.627 34.8933 72.8403Z" fill="#5D5D5D"/>
<path d="M42.0938 74.6005C42.0938 75.9338 42.2004 76.4671 42.3071 75.7738C42.4138 75.1338 42.4138 74.0671 42.3071 73.3738C42.2004 72.7338 42.0938 73.2671 42.0938 74.6005Z" fill="#5D5D5D"/>
<path d="M44.4402 72.8404C44.2269 73.0004 44.0669 73.8538 44.0669 74.6538C44.0669 75.8271 44.3869 76.2538 45.4002 76.5204C47.6936 77.1071 49.2936 74.7071 47.6936 73.1071C47.0002 72.4138 45.0269 72.2538 44.4402 72.8404ZM47.5336 73.5338C48.1202 74.4938 47.2136 76.2004 46.1469 76.2004C44.9736 76.2004 44.3336 75.0271 44.8136 73.8004C45.1336 72.8938 47.0536 72.7338 47.5336 73.5338Z" fill="#5D5D5D"/>
<path d="M49.88 73.6401C49.88 74.3334 49.7734 75.2934 49.6667 75.7734C49.56 76.3067 49.72 76.7334 49.9867 76.7334C50.2534 76.7334 50.4667 75.8801 50.4667 74.8667C50.4667 73.3734 50.68 73.0001 51.5334 73.0001C52.3867 73.0001 52.6 73.3734 52.6 74.8667C52.6 75.8801 52.8134 76.7334 53.1334 76.7334C53.56 76.7334 53.56 75.5067 53.1867 72.8401C53.1867 72.6267 52.44 72.4667 51.5334 72.4667C50.2534 72.4667 49.9334 72.6801 49.88 73.6401Z" fill="#5D5D5D"/>
<path d="M22.6802 80.0404C22.4669 84.6804 22.7869 91.9338 23.2135 92.0938C23.5869 92.2004 23.8002 90.1204 23.8002 85.8537C23.8002 81.9071 23.5869 79.4004 23.2669 79.4004C23.0002 79.4004 22.7335 79.7204 22.6802 80.0404Z" fill="#5D5D5D"/>
<path d="M0.333496 86.0669C0.333496 91.1869 0.493496 92.2002 1.1335 92.2002C1.7735 92.2002 1.9335 91.5069 1.9335 89.2669V86.2802L5.02683 86.4402L8.06684 86.6002L8.22684 89.3735C8.3335 91.1335 8.6535 92.2002 9.02684 92.2002C9.50684 92.2002 9.6135 90.5469 9.50684 86.0669C9.40017 82.7069 9.1335 79.9335 8.8135 79.9335C8.54684 79.9335 8.3335 81.1069 8.3335 82.6002V85.2669H5.1335H1.9335V82.6002C1.9335 80.5735 1.72016 79.9335 1.1335 79.9335C0.493496 79.9335 0.333496 80.9469 0.333496 86.0669Z" fill="#5D5D5D"/>
<path d="M28.7603 80.8402C28.3869 81.0002 28.0669 81.5335 28.0669 82.1202C28.0669 82.7602 27.6936 83.1335 27.0003 83.1335C26.4136 83.1335 25.9336 83.3469 25.9336 83.6669C25.9336 83.9335 26.4136 84.2002 27.0003 84.2002C27.9069 84.2002 28.0669 84.5735 28.0669 86.8135C28.0669 90.7602 28.7603 92.2002 30.7336 92.2002C32.6003 92.2002 32.9203 91.2935 31.1603 91.0269C30.0403 90.8669 29.9336 90.5469 29.7736 87.5069C29.6136 84.2535 29.6669 84.2002 31.0003 84.2002C31.7469 84.2002 32.3336 83.9335 32.3336 83.6669C32.3336 83.3469 31.7469 83.1335 31.0536 83.1335C30.0936 83.1335 29.6669 82.8135 29.5603 81.9069C29.4536 81.1602 29.1336 80.7335 28.7603 80.8402Z" fill="#5D5D5D"/>
<path d="M13.8267 83.507C12.44 84.0403 13.1867 84.787 14.7333 84.467C16.4933 84.0936 17.9333 84.8403 17.9333 86.1203C17.9333 86.6003 17.2933 86.867 16.1733 86.867C12.9733 86.867 10.84 89.6936 12.7067 91.5603C13.56 92.4136 16.44 92.3603 17.3467 91.5603C17.9333 90.9736 18.0933 90.9736 18.3067 91.507C18.9467 93.267 19.5333 91.8803 19.5333 88.7336C19.5333 85.9603 19.32 85.0536 18.4667 84.2003C17.4533 83.187 15.32 82.867 13.8267 83.507ZM17.9333 88.8936C17.9333 90.227 16.92 91.1336 15.4267 91.1336C13.9333 91.1336 13.2933 89.8536 14.2 88.7336C15.16 87.5603 17.9333 87.667 17.9333 88.8936Z" fill="#5D5D5D"/>
<path d="M35.2669 84.4669C32.4403 87.2936 34.4669 92.4136 38.3603 92.4136C39.6936 92.4136 40.7603 91.9869 41.7203 91.0802C42.8936 89.9602 43.0536 89.4802 42.8403 87.4002C42.5203 84.5736 41.027 83.1336 38.3603 83.1336C37.1336 83.1336 36.1203 83.5602 35.2669 84.4669ZM40.4403 85.1069C42.4136 86.8669 40.9736 91.6669 38.4669 91.6669C37.1869 91.6669 35.5336 89.6402 35.5336 88.0402C35.5336 84.8402 38.3069 83.1336 40.4403 85.1069Z" fill="#5D5D5D"/>
<path d="M45.4537 84.3069C45.507 85.0002 45.6137 87.0269 45.6137 88.8402C45.667 90.7069 45.8804 92.2002 46.2004 92.2002C46.5204 92.2002 46.7337 91.1335 46.7337 89.8535C46.7337 86.7602 47.4804 84.8935 48.867 84.4669C50.8937 83.8269 52.067 85.5335 52.067 89.1069C52.067 90.8135 52.2804 92.2002 52.6004 92.2002C52.9204 92.2002 53.1337 90.6535 53.1337 88.5735C53.1337 84.5202 52.2804 83.1335 49.9337 83.1335C49.2404 83.1335 48.227 83.5069 47.6937 84.0402C46.787 84.8402 46.7337 84.8402 46.7337 84.0402C46.7337 83.5069 46.4137 83.1335 46.0404 83.1335C45.6137 83.1335 45.347 83.6135 45.4537 84.3069Z" fill="#5D5D5D"/>
</svg>
