<svg width="102" height="63" viewBox="0 0 102 63" fill="none" xmlns="http://www.w3.org/2000/svg">
<path d="M36.6001 2.46676V4.6001H51.5334H66.4668V2.46676V0.333428H51.5334H36.6001V2.46676Z" fill="#5D5D5D"/>
<path d="M36.9734 8.70698C36.7601 8.86698 36.6001 13.667 36.6001 19.3737V29.667H38.8934H41.1334L41.0268 19.1603L40.9734 8.60031L39.1601 8.49364C38.1468 8.38698 37.1334 8.49364 36.9734 8.70698Z" fill="#5D5D5D"/>
<path d="M45.1333 11V13.1333H55.8H66.4667V11V8.86663H55.8H45.1333V11Z" fill="#5D5D5D"/>
<path d="M45.1333 23.5335V30.2002H55.8H66.4667V27.8002V25.4002H58.2H49.9333V23.5335V21.6669H58.2H66.4667V19.2669V16.8669H55.8H45.1333V23.5335Z" fill="#5D5D5D"/>
<path d="M0.866699 46.4669V52.0669H2.20003C3.4267 52.0669 3.53337 51.8536 3.53337 49.9336V47.8002H5.6667C7.4267 47.8002 7.80004 47.6402 7.80004 46.7336C7.80004 45.8269 7.4267 45.6669 5.6667 45.6669C3.9067 45.6669 3.53337 45.5069 3.53337 44.6002C3.53337 43.6936 3.9067 43.5336 5.6667 43.5336C7.5867 43.5336 7.80004 43.3736 7.80004 42.2002C7.80004 40.9202 7.69337 40.8669 4.33337 40.8669H0.866699V46.4669Z" fill="#5D5D5D"/>
<path d="M10.8401 41.2402C10.6268 41.4002 10.4668 43.9602 10.4668 46.8402C10.4668 52.0669 10.4668 52.0669 11.8001 52.0669H13.1335V46.4669C13.1335 41.4002 13.0268 40.8669 12.1735 40.8669C11.6401 40.8669 11.0001 41.0269 10.8401 41.2402Z" fill="#5D5D5D"/>
<path d="M16.3335 46.4136V52.0669H17.6668C18.7868 52.0669 19.0002 51.8002 19.0002 50.4669C19.0002 49.4536 19.2668 48.8669 19.7468 48.8669C20.1735 48.8669 21.0268 49.5602 21.6668 50.4669C22.4135 51.4802 23.2668 52.0669 24.1202 52.0669C25.6668 52.0669 25.7202 51.8002 24.3335 50.0936C23.3735 48.8669 23.3735 48.6536 24.0668 47.6402C25.0802 46.2002 25.0802 43.5336 24.1202 42.2002C23.5868 41.4536 22.5202 41.1336 19.8535 40.9736L16.3335 40.7602V46.4136ZM22.0935 44.9736C21.9868 46.1469 21.6135 46.5202 20.4935 46.6269C19.1602 46.7869 19.0002 46.6269 19.0002 45.1869C19.0002 43.6936 19.1602 43.5336 20.6535 43.5336C22.0935 43.5336 22.2535 43.6936 22.0935 44.9736Z" fill="#5D5D5D"/>
<path d="M28.9202 41.7202C27.9069 42.6802 27.8002 45.8269 28.7602 46.6269C29.0802 46.8935 30.2002 47.3202 31.1602 47.5335C32.6002 47.8002 32.9202 48.1202 32.7602 49.0269C32.6002 50.0402 32.2802 50.2002 30.3602 50.0402C28.3869 49.9335 28.0669 50.0402 28.0669 50.9469C28.0669 51.7469 28.5469 52.0669 30.1469 52.3335C34.0936 52.9735 36.1736 51.0002 35.3202 47.4802C35.0536 46.5735 34.4136 46.0935 32.8669 45.6669C31.2669 45.2402 30.7336 44.8135 30.7336 44.0135C30.7336 43.0535 31.0002 42.8935 32.8136 43.1069C34.4669 43.2669 35.0002 43.1069 35.1602 42.3602C35.5336 41.0802 35.1602 40.8669 32.2802 40.8669C30.6802 40.8669 29.4536 41.1869 28.9202 41.7202Z" fill="#5D5D5D"/>
<path d="M37.6665 42.2002C37.6665 43.2669 37.9332 43.5336 38.9998 43.5336C40.3332 43.5336 40.3332 43.5869 40.3332 47.8002C40.3332 52.0136 40.3332 52.0669 41.6665 52.0669C42.9998 52.0669 42.9998 52.0136 42.9998 47.8536C42.9998 43.6402 42.9998 43.5869 44.4932 43.4269C45.5065 43.3202 45.9332 42.9469 45.9332 42.2002C45.9332 41.2402 45.5065 41.1336 41.8265 40.9736C37.6665 40.8136 37.6665 40.8136 37.6665 42.2002Z" fill="#5D5D5D"/>
<path d="M53.7734 41.72C52.7601 42.4134 52.6001 43 52.6001 46.36C52.6001 48.4934 52.8134 50.4667 53.0268 50.84C53.6668 51.9067 56.3868 52.6534 58.2001 52.28C59.5868 52.0134 59.9068 51.7467 59.6934 50.9467C59.4801 50.1467 58.9468 49.9334 57.2934 49.9334H55.2134L55.3734 46.5734L55.5334 43.2667L57.5601 43.3734C59.3201 43.48 59.5334 43.3734 59.5334 42.2C59.5334 40.9734 59.3201 40.8667 57.2401 40.8667C56.0134 40.8667 54.4134 41.24 53.7734 41.72Z" fill="#5D5D5D"/>
<path d="M62.7334 46.4669V52.0669H66.2534C69.2934 52.0669 69.7201 51.9602 69.5601 51.1069C69.4534 50.4669 68.7601 50.1469 67.1067 50.0402L64.8667 49.8802V45.3469C64.8667 41.2402 64.7601 40.8669 63.8001 40.8669C62.7867 40.8669 62.7334 41.2402 62.7334 46.4669Z" fill="#5D5D5D"/>
<path d="M74.787 41.5069C74.0403 43.6402 71.8003 51.4802 71.8003 51.7469C71.8003 51.9069 72.387 52.0669 73.0803 52.0669C73.8803 52.0669 74.467 51.6936 74.627 51.0002C74.8403 50.2002 75.3736 49.9336 76.8136 49.9336C78.3603 49.9336 78.7336 50.1469 78.7336 51.0002C78.7336 51.8002 79.107 52.0669 80.067 52.0669C81.667 52.0669 81.667 51.9069 79.8536 45.9336C78.467 41.2936 78.3603 41.1336 76.707 40.9736C75.6403 40.8669 74.8936 41.0802 74.787 41.5069ZM77.1336 44.7069C77.1336 45.0802 77.2936 45.9336 77.4536 46.5736C77.7203 47.5869 77.5603 47.8002 76.6003 47.8002C75.6403 47.8002 75.4803 47.5869 75.747 46.5736C75.907 45.9336 76.067 45.0802 76.067 44.7069C76.067 44.3869 76.3336 44.0669 76.6003 44.0669C76.9203 44.0669 77.1336 44.3869 77.1336 44.7069Z" fill="#5D5D5D"/>
<path d="M85.0269 41.4533C84.3869 41.8267 84.0669 42.6267 84.0669 44.0133C84.0669 46.2533 84.6536 47 86.8936 47.5333C90.0936 48.3333 89.1336 50.6267 85.8269 50.0933C84.7069 49.88 84.0669 49.9867 84.0669 50.4133C84.0669 50.7333 84.0136 51.16 83.9603 51.3733C83.6936 52.0133 86.9469 52.6 88.7603 52.28C90.8403 51.9067 91.8536 50.2 91.3203 48.0667C91.0536 47.0533 90.3069 46.4133 88.5469 45.6667C85.5603 44.3333 85.6669 43.2667 88.8136 43.32C90.7869 43.3733 91.0536 43.2133 90.8936 42.2533C90.7869 41.3467 90.3069 41.1333 88.3336 41.0267C87.0003 40.92 85.5069 41.1333 85.0269 41.4533Z" fill="#5D5D5D"/>
<path d="M95.1603 41.4534C94.5203 41.8267 94.2003 42.6267 94.2003 44.0134C94.2003 46.2534 94.787 47 97.027 47.5334C100.067 48.3334 99.267 50.68 96.1737 50.0934C95.1603 49.88 94.467 50.04 94.2003 50.52C93.507 51.5334 93.987 51.9067 96.227 52.3334C98.8937 52.76 101.027 51.9067 101.454 50.2534C101.987 48.0667 101.187 46.7334 98.627 45.6134C95.6937 44.3334 95.8537 43.2667 98.947 43.32C100.92 43.3734 101.187 43.2134 101.027 42.2534C100.92 41.3467 100.44 41.1334 98.467 41.0267C97.1337 40.92 95.6403 41.1334 95.1603 41.4534Z" fill="#5D5D5D"/>
<path d="M22.7334 60.3334C22.7334 61.6667 23.0001 62.7334 23.2667 62.7334C23.5867 62.7334 23.8001 62.2534 23.8001 61.7201C23.8001 61.0801 24.2267 60.6001 25.0267 60.4401L26.2001 60.2267L25.0267 60.1201C23.5334 60.0667 23.3734 59.0001 24.8667 59.0001C25.4534 59.0001 25.9334 58.7334 25.9334 58.4667C25.9334 58.1467 25.2401 57.9334 24.3334 57.9334C22.7867 57.9334 22.7334 58.0401 22.7334 60.3334Z" fill="#5D5D5D"/>
<path d="M29.6665 60.3334C29.6665 62.5201 29.7732 62.7334 30.9998 62.7334C31.7465 62.7334 32.3332 62.4667 32.3332 62.2001C32.3332 61.8801 31.9598 61.6667 31.5332 61.6667C30.9998 61.6667 30.7332 61.0801 30.7332 59.8001C30.7332 58.7867 30.5198 57.9334 30.1998 57.9334C29.9332 57.9334 29.6665 59.0001 29.6665 60.3334Z" fill="#5D5D5D"/>
<path d="M36.0665 58.7868C34.9465 60.1202 36.0132 62.4135 37.8265 62.6268C38.6799 62.7335 39.6932 62.5202 40.1199 62.1468C41.0265 61.4002 41.0799 59.4268 40.2265 58.5735C39.3199 57.6668 36.8665 57.7735 36.0665 58.7868ZM39.5332 60.3335C39.5332 61.5068 37.8799 62.0935 37.0265 61.2402C36.1199 60.3335 36.9732 58.8935 38.3065 59.1068C39.1065 59.2135 39.5332 59.6402 39.5332 60.3335Z" fill="#5D5D5D"/>
<path d="M44.7069 58.5734C44.3336 58.9467 44.0669 59.6934 44.0669 60.3334C44.0669 61.8267 45.0802 62.7334 46.7336 62.7334C48.3869 62.7334 49.4002 61.8267 49.4002 60.3334C49.4002 58.8401 48.3869 57.9334 46.7336 57.9334C45.9869 57.9334 45.0802 58.2001 44.7069 58.5734ZM48.0669 60.3334C48.0669 61.5067 46.4136 62.0934 45.5602 61.2401C44.6536 60.3334 45.5069 58.8934 46.8402 59.1067C47.6402 59.2134 48.0669 59.6401 48.0669 60.3334Z" fill="#5D5D5D"/>
<path d="M52.6001 60.2801C52.6001 61.6134 52.8668 62.7334 53.1334 62.7334C53.4534 62.7334 53.6668 62.3601 53.6668 61.9334C53.6668 61.5067 53.9334 61.1334 54.2001 61.1334C54.5201 61.1334 54.8934 61.5067 55.0534 61.9334C55.6401 63.4267 56.1734 62.7334 56.1201 60.4401C56.0668 58.3067 55.9601 58.2001 54.3601 58.0401C52.6001 57.8801 52.6001 57.8801 52.6001 60.2801Z" fill="#5D5D5D"/>
<path d="M60.0669 60.3334C60.0669 61.6667 60.3336 62.7334 60.6002 62.7334C60.9202 62.7334 61.1336 61.6667 61.1336 60.3334C61.1336 59.0001 60.9202 57.9334 60.6002 57.9334C60.3336 57.9334 60.0669 59.0001 60.0669 60.3334Z" fill="#5D5D5D"/>
<path d="M64.8667 60.3335C64.8667 61.6669 65.1334 62.7335 65.4 62.7335C65.72 62.7335 65.9334 62.0935 65.9334 61.2402L65.9867 59.8002L67.0534 61.2402C68.76 63.5335 69.6667 63.1602 69.6667 60.3335C69.6667 59.0002 69.4534 57.9335 69.1334 57.9335C68.8667 57.9335 68.6 58.5202 68.6 59.2669C68.6 60.0135 68.3867 60.6002 68.1734 60.6002C67.9067 60.6002 67.4267 60.0135 67.1067 59.2669C66.04 57.0269 64.8667 57.5602 64.8667 60.3335Z" fill="#5D5D5D"/>
<path d="M73.3467 59.0534C72.3334 60.9734 73.5067 62.7334 75.8001 62.7334C77.4534 62.7334 77.6667 62.5734 77.6667 61.4001C77.6667 60.3867 77.4001 60.0667 76.5467 60.0667C75.5334 60.0667 75.4801 60.1734 76.1201 60.9201C76.7067 61.6667 76.6534 61.7201 75.5334 61.5601C73.5601 61.2934 73.7201 59.3201 75.6934 59.1067C77.6134 58.8934 77.5601 57.9334 75.5334 57.9334C74.4667 57.9334 73.7734 58.3067 73.3467 59.0534Z" fill="#5D5D5D"/>
</svg>
