<svg width="129" height="34" viewBox="0 0 129 34" fill="none" xmlns="http://www.w3.org/2000/svg">
<path d="M55.0406 1.86697C52.8539 3.20031 51.7339 5.76031 51.7339 9.54698C51.7339 15.627 54.5072 18.8803 59.2006 18.2403C63.4139 17.707 65.4406 14.1336 64.9072 8.10698C64.5872 4.42697 63.4672 2.56031 61.0672 1.54697C58.5606 0.533638 57.1206 0.586971 55.0406 1.86697ZM59.8939 4.26697C61.6006 5.92031 61.6539 13.8136 60.0006 15.2003C58.8806 16.1603 56.9072 15.627 56.1072 14.1336C55.2006 12.427 55.4672 5.54698 56.4806 4.32031C57.3872 3.25364 58.8806 3.20031 59.8939 4.26697Z" fill="#5D5D5D"/>
<path d="M1.06738 9.54675C1.06738 16.9068 1.17405 17.7601 2.02738 17.9734C3.84072 18.4534 4.26739 17.8668 4.26739 14.6668V11.5201L6.82739 11.3601C8.96072 11.2001 9.33406 11.0401 9.49406 9.97342C9.65406 8.90675 9.49406 8.80009 6.98739 8.80009H4.26739V6.13342V3.46675H7.46739C10.2941 3.46675 10.6674 3.36008 10.6674 2.40008C10.6674 1.38675 10.2941 1.33342 5.86739 1.33342H1.06738V9.54675Z" fill="#5D5D5D"/>
<path d="M43.7338 3.14705C43.7338 3.57371 43.3605 4.00038 42.9338 4.21371C42.5071 4.37371 42.1338 5.01371 42.1338 5.60038C42.1338 6.18705 42.5071 6.66705 42.9338 6.66705C43.5738 6.66705 43.7338 7.57372 43.7338 11.6804C43.7338 16.3204 43.8405 16.8004 44.9071 17.5471C45.5471 18.0271 46.7738 18.4004 47.5738 18.4004C48.8005 18.4004 49.0671 18.1871 49.0671 17.0671C49.0671 16.2671 48.7471 15.7337 48.2671 15.7337C46.9871 15.7337 46.3471 13.7604 46.5071 10.2404C46.6671 7.25372 46.7738 6.93372 47.8938 6.77372C49.4938 6.50705 49.3338 4.26705 47.7338 4.26705C47.0405 4.26705 46.6671 3.94705 46.7205 3.30705C46.7738 2.66705 46.4005 2.40038 45.2805 2.40038C44.3205 2.40038 43.7338 2.66705 43.7338 3.14705Z" fill="#5D5D5D"/>
<path d="M81.6005 3.14686C81.6005 3.57353 81.2272 4.00019 80.8005 4.21353C80.3738 4.37353 80.0005 5.01353 80.0005 5.60019C80.0005 6.18686 80.3738 6.66686 80.8005 6.66686C81.4405 6.66686 81.6005 7.57353 81.6005 11.4669C81.6005 15.6269 81.7605 16.4269 82.7205 17.3869C84.2138 18.8802 87.1472 18.6135 87.3605 17.0135C87.4672 16.1602 87.1472 15.7869 86.1872 15.5202C84.8538 15.2002 84.8005 15.0402 84.8005 10.9335C84.8005 7.04019 84.9072 6.66686 85.8672 6.66686C86.6138 6.66686 86.9338 6.29353 86.9338 5.54686C86.9338 4.90686 86.5072 4.32019 85.8672 4.16019C85.2805 4.00019 84.8005 3.52019 84.8005 3.14686C84.8005 2.66686 84.2138 2.40019 83.2005 2.40019C82.1872 2.40019 81.6005 2.66686 81.6005 3.14686Z" fill="#5D5D5D"/>
<path d="M22.9341 10.88V17.8667H24.5341H26.1341V13.6C26.1341 9.97336 26.2941 9.17336 27.2541 8.21336C27.8408 7.62669 28.6941 7.25336 29.1208 7.41336C29.6541 7.62669 29.8674 7.25336 29.8674 5.86669C29.8674 4.37335 29.6541 4.00002 28.8008 4.00002C28.2141 4.00002 27.3608 4.64002 26.8274 5.44002L25.9208 6.82669L25.6008 5.54669C25.3874 4.74669 24.8541 4.21336 24.1074 4.10669C22.9341 3.94669 22.9341 4.00002 22.9341 10.88Z" fill="#5D5D5D"/>
<path d="M32.8007 5.33368C31.4141 6.66702 31.0941 8.96035 32.0007 10.4004C32.2674 10.827 33.4941 11.6804 34.7741 12.267C36.5874 13.1204 37.0674 13.6537 37.0674 14.667C37.0674 16.427 35.0941 16.8004 33.9741 15.2004C32.7474 13.4404 30.6674 14.7737 31.8941 16.587C33.0674 18.4004 36.3741 18.8804 38.2941 17.547C41.3341 15.4137 40.8541 11.7337 37.2807 10.0804C35.0407 9.12035 34.0807 7.94702 34.5074 6.77368C34.8274 5.86702 36.5341 5.97368 37.3341 6.93368C37.7074 7.36035 38.2941 7.73369 38.7207 7.73369C40.0541 7.73369 40.0541 6.66702 38.7207 5.33368C36.9607 3.57368 34.5074 3.57368 32.8007 5.33368Z" fill="#5D5D5D"/>
<path d="M68.6405 4.37374C68.2138 4.74707 68.1605 17.5471 68.5338 17.9737C68.6938 18.1338 69.4405 18.1338 70.1338 17.9737C71.4138 17.7604 71.4672 17.6004 71.4672 13.0671C71.4672 7.46708 71.7338 6.66707 73.3872 6.66707C74.6672 6.66707 74.6672 6.72041 74.6672 12.2671V17.8671H76.2672H77.8672V11.8404C77.8672 6.61374 77.7072 5.65374 76.9072 4.90707C75.6805 3.78707 73.3872 3.73374 72.4805 4.85374C71.8938 5.60041 71.7872 5.60041 71.3605 4.85374C70.8805 4.00041 69.2805 3.68041 68.6405 4.37374Z" fill="#5D5D5D"/>
<path d="M91.5206 5.11999C90.7739 5.70666 90.1339 6.55999 90.1339 6.98666C90.1339 8 92.6406 7.94666 93.2273 6.87999C94.0273 5.43999 95.7339 6.18666 95.8939 8.05333C96.0539 9.6 95.9473 9.76 93.8673 10.08C90.9873 10.5067 89.6006 12 89.6006 14.56C89.6006 18.1333 92.3739 19.4667 95.1473 17.28C96.2673 16.3733 96.5339 16.32 96.5339 17.0133C96.5339 17.5467 97.0139 17.8667 97.8673 17.8667H99.2006V12.2667C99.2006 6.98666 99.0939 6.55999 97.8673 5.33333C96.2673 3.67999 93.4939 3.57333 91.5206 5.11999ZM96.0006 13.28C96.0006 15.2533 94.8806 16.5867 93.6006 16.0533C92.6406 15.68 92.5339 13.0133 93.4406 12.1067C93.8139 11.7333 94.5073 11.4667 95.0406 11.4667C95.7873 11.4667 96.0006 11.8933 96.0006 13.28Z" fill="#5D5D5D"/>
<path d="M102.721 4.37374C102.347 4.80041 102.294 17.6004 102.667 17.9737C102.827 18.1338 103.574 18.1338 104.267 17.9737C105.547 17.7604 105.601 17.6004 105.601 13.7604C105.601 9.17374 106.187 7.73374 108.001 7.73374C109.174 7.73374 109.334 7.52041 109.334 5.86707C109.334 4.37374 109.121 4.00041 108.321 4.00041C107.734 4.00041 106.774 4.64041 106.187 5.44041L105.121 6.93374L105.067 5.60041C105.067 4.64041 104.747 4.21374 104.054 4.16041C103.521 4.10707 102.881 4.21374 102.721 4.37374Z" fill="#5D5D5D"/>
<path d="M112 10.88V17.8667H113.6H115.254L115.094 11.04L114.934 4.26669L113.494 4.10669L112 3.94669V10.88Z" fill="#5D5D5D"/>
<path d="M119.734 5.17363C117.387 7.30696 117.014 14.4003 119.147 16.747C121.494 19.307 126.507 18.507 127.787 15.4136C129.334 11.787 128.32 5.81363 125.974 4.58696C124.107 3.62696 121.227 3.89363 119.734 5.17363ZM124.267 6.88029C125.174 8.0003 125.12 14.6136 124.16 15.5203C122.454 17.2803 121.067 15.307 121.067 11.0936C121.067 6.98696 122.614 4.96029 124.267 6.88029Z" fill="#5D5D5D"/>
<path d="M16.9608 8.64031C17.2275 14.987 17.4408 15.627 17.4941 10.2403C17.5475 7.41364 17.4408 5.06698 17.2275 5.06698C16.9608 5.06698 16.8541 6.66698 16.9608 8.64031Z" fill="#5D5D5D"/>
<path d="M15.8937 9.33375C15.3603 10.4538 15.147 16.2671 15.5737 16.2671C15.787 16.2671 16.107 15.7338 16.267 15.0404C16.6937 13.3871 16.3203 8.32042 15.8937 9.33375Z" fill="#5D5D5D"/>
<path d="M13.494 16.7471C13.494 17.3337 13.7607 17.6537 13.974 17.5471C14.5607 17.1737 14.5073 15.7337 13.9207 15.7337C13.6007 15.7337 13.4407 16.2137 13.494 16.7471Z" fill="#5D5D5D"/>
<path d="M16.5338 16.5335C16.0005 17.1735 16.0005 17.3335 16.6938 17.3335C17.7072 17.3335 18.3472 16.4802 17.6538 16.0535C17.3872 15.8935 16.9072 16.1068 16.5338 16.5335Z" fill="#5D5D5D"/>
<path d="M1.60055 26.4003C-0.372785 28.3736 0.533882 32.8003 2.88055 32.8003C4.16055 32.8003 5.76055 31.4136 5.12055 30.827C4.96055 30.6136 4.42722 30.9336 4.00055 31.5203C3.20055 32.5336 3.20055 32.5336 2.40055 31.5203C1.06722 29.8136 1.49388 26.4003 2.98722 26.4003C3.41388 26.4003 3.89389 26.7736 4.05389 27.2003C4.42722 28.0536 5.33389 28.3203 5.33389 27.5203C5.33389 26.8803 3.78722 25.3336 3.14722 25.3336C2.88055 25.3336 2.18722 25.8136 1.60055 26.4003Z" fill="#5D5D5D"/>
<path d="M27.3606 25.7603L25.6006 25.9203V29.387V32.8003H27.8939C29.3873 32.8003 29.8673 32.6403 29.3873 32.3203C28.9606 32.0536 28.1606 31.8936 27.6273 32.0003C26.9339 32.1603 26.6673 31.8936 26.6673 30.8803C26.6673 29.9736 26.9339 29.6003 27.7339 29.6003C28.3206 29.6003 28.8006 29.3336 28.8006 29.067C28.8006 28.747 28.3206 28.5336 27.7339 28.5336C27.0406 28.5336 26.6673 28.1603 26.6673 27.5203C26.6673 26.7203 27.0939 26.4003 28.4273 26.2936C29.3339 26.187 29.9206 26.027 29.6006 25.867C29.3339 25.707 28.2673 25.6536 27.3606 25.7603Z" fill="#5D5D5D"/>
<path d="M110.934 26.4003C108.908 28.427 110.134 32.8003 112.801 32.8003C114.294 32.8003 115.201 31.4136 115.201 29.1203C115.201 27.5203 113.654 25.3336 112.534 25.3336C112.268 25.3336 111.521 25.8136 110.934 26.4003ZM113.921 27.787C114.401 29.547 113.548 32.0003 112.534 32.0003C111.361 32.0003 110.614 29.387 111.361 27.7336C112.161 25.9736 113.494 26.027 113.921 27.787Z" fill="#5D5D5D"/>
<path d="M13.334 29.3336C13.334 31.307 13.5473 32.8003 13.8673 32.8003C14.1873 32.8003 14.4007 32.0536 14.4007 31.2003C14.4007 30.2936 14.6673 29.6003 14.9873 29.6003C15.254 29.6003 15.7873 30.2936 16.054 31.2003C16.374 32.0536 16.854 32.8003 17.1207 32.8003C17.7607 32.8003 17.7073 32.587 17.014 30.987C16.534 29.9203 16.534 29.4403 17.014 28.8536C17.3873 28.427 17.5473 27.5736 17.334 26.9336C17.0673 26.1336 16.534 25.867 15.1473 25.867H13.334V29.3336ZM16.2673 27.7336C16.2673 28.3203 15.8407 28.8536 15.3607 28.9603C14.614 29.1203 14.4007 28.8003 14.4007 27.7336C14.4007 26.667 14.614 26.347 15.3607 26.507C15.8407 26.6136 16.2673 27.147 16.2673 27.7336Z" fill="#5D5D5D"/>
<path d="M37.334 29.3336V32.8003H38.8807C41.5473 32.8003 42.8273 30.0803 41.494 27.2003C41.014 26.187 40.4807 25.867 39.094 25.867H37.334V29.3336ZM40.534 27.5203C41.334 29.0136 40.694 31.5736 39.414 31.8936C38.5073 32.1603 38.4007 31.8936 38.4007 29.2803C38.4007 26.187 39.414 25.3336 40.534 27.5203Z" fill="#5D5D5D"/>
<path d="M50.1338 29.3336C50.1338 31.307 50.3471 32.8003 50.6671 32.8003C50.9871 32.8003 51.2005 31.307 51.2005 29.3336C51.2005 27.3603 50.9871 25.867 50.6671 25.867C50.3471 25.867 50.1338 27.3603 50.1338 29.3336Z" fill="#5D5D5D"/>
<path d="M58.827 26.2403C59.5737 26.4536 59.7337 27.0936 59.7337 29.6536C59.7337 31.4136 59.947 32.8003 60.267 32.8003C60.587 32.8003 60.8004 31.4136 60.8004 29.6536C60.8004 27.0936 60.9604 26.4536 61.7604 26.2403C62.2404 26.0803 61.6004 25.9736 60.267 25.9736C58.9337 25.9736 58.2937 26.0803 58.827 26.2403Z" fill="#5D5D5D"/>
<path d="M75.7339 27.947C75.7339 31.0936 76.5339 32.8003 78.0272 32.8003C78.7206 32.8003 79.5206 32.5336 79.8939 32.1603C80.6406 31.4136 80.7472 25.867 80.0006 25.867C79.7339 25.867 79.4672 27.147 79.4672 28.747C79.4672 30.347 79.2006 31.8403 78.9339 32.0003C77.7606 32.6936 76.8006 31.0936 76.8006 28.4803C76.8006 27.0403 76.5872 25.867 76.2672 25.867C76.0006 25.867 75.7339 26.827 75.7339 27.947Z" fill="#5D5D5D"/>
<path d="M88.0005 29.3336C88.0005 31.307 88.2138 32.8003 88.5338 32.8003C88.8538 32.8003 89.0672 31.5203 89.1205 29.9736V27.2003L90.5605 29.9736C91.3072 31.5203 92.1605 32.8003 92.3738 32.8003C92.5872 32.8003 92.7472 31.2003 92.6938 29.1736C92.6405 25.6536 92.6405 25.6536 92.3205 28.267L92.0005 30.9336L90.8272 28.3736C89.0672 24.6403 88.0005 25.0136 88.0005 29.3336Z" fill="#5D5D5D"/>
<path d="M100.801 29.0133C100.801 30.7733 101.067 32.3733 101.334 32.5333C101.654 32.7467 101.867 31.5733 101.867 29.3866C101.867 27.4133 101.654 25.8666 101.334 25.8666C101.014 25.8666 100.801 27.2533 100.801 29.0133Z" fill="#5D5D5D"/>
<path d="M123.307 29.4402L123.361 33.0669L123.734 30.1336L124.054 27.2002L125.334 29.9736C126.027 31.5202 126.827 32.8002 127.041 32.8002C127.254 32.8002 127.414 31.2002 127.361 29.1736C127.307 25.9202 127.254 25.8136 126.987 28.0002L126.667 30.4002L125.441 28.1069C124.801 26.8802 124.001 25.8669 123.734 25.8669C123.414 25.8669 123.254 27.4136 123.307 29.4402Z" fill="#5D5D5D"/>
</svg>
