<svg width="78" height="89" viewBox="0 0 78 89" fill="none" xmlns="http://www.w3.org/2000/svg">
<path d="M23.0935 0.320467C21.2802 0.8538 19.7335 2.56047 19.7335 4.10714C19.7335 4.90714 19.4135 5.0138 17.4402 4.74714C13.0135 4.10714 9.54685 7.09381 9.17351 11.7338C8.96018 14.2405 9.12018 14.9871 10.2935 16.7471C11.9468 19.2005 14.5602 20.2671 17.6535 19.7871C20.5335 19.3071 21.4935 20.0005 24.0535 24.2672C25.2802 26.3472 26.4535 28.0005 26.7202 28.0005C26.9335 28.0005 27.4669 27.0405 27.7869 25.8138C28.5335 23.4138 30.9335 21.0671 32.6935 21.0671C33.3335 21.0671 34.7202 21.5471 35.7335 22.1338L37.6002 23.2538L36.3202 22.1338C33.6002 19.7871 30.6135 20.1071 27.8935 22.9872L26.1869 24.8538L24.4802 21.8672C23.5735 20.2671 22.4002 18.6671 21.9202 18.4005C21.3869 18.1338 19.6802 18.0271 18.0802 18.1871C15.7869 18.4005 14.8269 18.2405 13.4402 17.3871C9.22685 14.7205 9.86685 8.74714 14.6669 6.6138C17.2269 5.4938 18.9869 5.8138 21.2269 7.84047C22.5602 9.12047 22.8269 8.48047 21.6002 6.88047C19.2535 3.7338 23.3069 -0.266201 27.3602 1.28047C29.6002 2.1338 30.6135 4.16047 30.1869 6.98714C30.0269 8.53381 30.0802 9.28047 30.4002 9.06714C30.7202 8.90714 30.9335 8.32047 30.9335 7.78714C30.9335 4.96047 36.8002 3.94714 39.2002 6.40047C40.5869 7.7338 40.9602 9.54714 40.0002 10.1338C39.7335 10.2938 39.4669 10.7205 39.4669 11.0938C39.4669 11.4138 39.8402 11.2005 40.2669 10.6138C41.4402 9.06714 41.2269 6.98714 39.6802 5.54714C38.5602 4.48047 37.7602 4.26714 34.8269 4.2138C31.7869 4.16047 31.2535 4.00047 30.7202 2.98713C29.4402 0.640467 26.1869 -0.532867 23.0935 0.320467Z" fill="#5D5D5D"/>
<path d="M46.8801 7.68053C44.3735 8.48053 43.3601 9.28053 42.6668 10.9339C40.1068 17.1739 51.7868 25.1739 60.6401 23.2005C63.8401 22.5072 66.1335 20.2672 66.0801 17.9739C66.0801 16.6405 66.0268 16.6405 65.4401 18.3472C64.4268 21.1739 62.6668 22.1872 58.6668 22.1872C53.8668 22.2405 49.6535 20.5872 46.2935 17.3339C43.9468 15.0405 43.6801 14.6139 43.8401 12.8005C44.1068 9.81386 45.9201 8.64053 50.5068 8.58719C52.4801 8.53386 54.8801 8.69386 55.7335 8.90719L57.3335 9.28053L55.6268 8.53386C53.4935 7.57386 48.6935 7.09386 46.8801 7.68053Z" fill="#5D5D5D"/>
<path d="M46.5071 24.8002C46.0271 25.6535 45.2804 25.8669 43.2538 25.8669C41.8138 25.8669 40.4271 26.1869 40.1071 26.5069C39.6804 27.0402 40.2138 27.2002 42.4538 27.2002C44.6404 27.2002 45.5471 26.9335 46.4538 26.0802C47.0938 25.4402 47.5204 24.6402 47.4138 24.3202C47.3071 24.0002 46.8804 24.2135 46.5071 24.8002Z" fill="#5D5D5D"/>
<path d="M32.8003 25.8668C32.3736 26.5601 33.0136 27.5734 33.6536 27.2001C34.2936 26.7734 34.2936 25.3334 33.6536 25.3334C33.3336 25.3334 32.9603 25.5468 32.8003 25.8668Z" fill="#5D5D5D"/>
<path d="M50.027 26.2938C49.7603 27.5738 49.9203 32.2671 50.2936 32.2671C50.507 32.2671 50.667 31.0404 50.667 29.5471C50.667 27.1471 50.7736 26.8804 51.467 27.4671C52.1603 28.0538 52.2136 28.0004 51.947 27.3071C51.627 26.4004 50.187 25.6538 50.027 26.2938Z" fill="#5D5D5D"/>
<path d="M34.2936 28.2137C31.7869 30.2937 30.6136 30.7204 29.1203 30.1337C27.5736 29.6004 27.2003 30.4537 28.3736 31.6271C29.7603 33.0137 33.0136 32.1071 34.8269 29.7604C35.5203 28.9071 36.3736 28.5337 37.7603 28.5337C39.5736 28.5337 39.6269 28.4804 38.6136 27.7337C37.1736 26.6137 36.0536 26.7737 34.2936 28.2137Z" fill="#5D5D5D"/>
<path d="M54.7738 29.0668C53.1204 30.3468 52.9604 30.4001 52.6404 29.1734C52.4804 28.6934 52.3738 29.0668 52.3204 30.0801L52.2671 31.9468L53.7604 30.5068C54.5604 29.7601 55.7871 28.9068 56.5338 28.5868C57.3338 28.2668 57.5471 28.0534 57.0138 28.0534C56.5338 28.0001 55.5204 28.4801 54.7738 29.0668Z" fill="#5D5D5D"/>
<path d="M22.7205 32.8536C21.1205 34.7203 21.2805 36.6936 23.1471 38.3469C24.1072 39.1469 24.7472 39.2536 27.4672 38.9336C31.4138 38.4536 33.7072 38.4536 36.8005 38.9336C38.7738 39.2536 39.4138 39.0936 40.6405 38.1869C41.3872 37.5469 42.1872 36.3736 42.4005 35.5203C42.5605 34.6669 43.0938 33.6536 43.5205 33.2803C44.7472 32.2669 44.3738 31.6269 42.9872 32.5336C42.2938 33.0136 41.5472 33.9736 41.3872 34.6669C40.9072 36.5869 38.7738 37.7603 36.5338 37.3869C35.5205 37.2269 33.8138 36.9069 32.7472 36.7469C31.7338 36.5336 29.8138 36.6936 28.5338 37.0669C26.4538 37.6536 25.9738 37.6003 24.8005 36.8536C23.3605 35.8936 23.0405 34.0269 24.0005 32.2136C24.8538 30.7203 24.2672 30.9869 22.7205 32.8536Z" fill="#5D5D5D"/>
<path d="M60.5868 32.6937C60.0001 32.8003 58.3468 33.7603 56.9068 34.7203C54.1335 36.6403 53.3335 36.6937 50.6668 35.0937C49.5468 34.4537 49.6001 34.5603 50.9868 35.8403L52.5868 37.387L50.7735 40.8537C49.6535 42.987 49.4401 43.6803 50.1868 42.667C51.6801 40.6403 57.3335 35.147 59.0401 34.027C59.7335 33.547 61.0135 33.1737 61.9201 33.227C62.7735 33.227 63.4668 33.067 63.4668 32.8537C63.4668 32.4803 62.1868 32.3737 60.5868 32.6937Z" fill="#5D5D5D"/>
<path d="M59.8403 50.1868C59.5203 50.7201 59.2003 50.9334 59.2003 50.6668C59.2003 50.3468 58.987 50.4534 58.7203 50.8801C57.707 52.4801 60.8537 53.8668 62.2937 52.4268C63.0937 51.6268 63.0937 50.9334 62.347 50.9334C61.9737 50.9334 61.4403 50.5601 61.067 50.0268C60.4803 49.2268 60.3737 49.2268 59.8403 50.1868Z" fill="#5D5D5D"/>
<path d="M5.38698 53.1738C2.08031 54.8804 0.800312 56.8004 0.853645 59.8938C0.906979 65.6538 5.70698 68.4271 13.4937 67.1471L15.467 66.7738V62.8804V58.9338H12.5337C9.65365 58.9338 9.60032 58.9338 9.60032 60.5338C9.60032 61.4938 9.86699 62.0804 10.2403 62.0271C10.5603 61.9204 10.987 62.2938 11.0937 62.7738C11.2537 63.5204 10.9337 63.7338 9.65365 63.7338C6.24032 63.7338 4.58698 59.4671 6.93365 56.9071C8.26698 55.5204 10.027 55.2538 13.4937 55.9471C14.7737 56.2138 14.9337 56.1071 14.9337 54.6671C14.9337 52.7471 14.507 52.4804 10.7737 52.1604C8.32032 51.9471 7.30698 52.1604 5.38698 53.1738Z" fill="#5D5D5D"/>
<path d="M18.5069 52.3735C17.6536 52.5869 17.6003 53.2802 17.7069 59.8935L17.8669 67.2002H20.2669H22.6669L22.8269 59.8402C22.9336 54.1869 22.8269 52.5335 22.2936 52.5335C21.9203 52.5335 21.1203 52.4269 20.5336 52.3202C19.9469 52.2135 19.0403 52.2135 18.5069 52.3735Z" fill="#5D5D5D"/>
<path d="M25.8134 52.4801C25.7068 52.5868 25.6001 56.0535 25.6001 60.1068V67.4668H28.0001H30.4001V63.7335C30.4001 61.6535 30.5601 60.0001 30.7734 60.0001C30.9868 60.0001 32.7468 61.6535 34.7201 63.6801C37.9734 67.0401 38.4001 67.3068 40.3201 67.2535L42.4001 67.1468L42.5601 60.0001C42.6134 56.1068 42.5068 52.7468 42.2934 52.5335C42.0801 52.3201 40.8001 52.2668 39.5201 52.4268L37.1734 52.6401L37.4934 56.0535C37.6001 57.9201 37.6001 59.4668 37.3868 59.4668C37.1734 59.4668 35.5201 57.9201 33.6534 56.0535C30.8268 53.2268 29.9201 52.5868 28.1601 52.4268C27.0401 52.3201 25.9734 52.3201 25.8134 52.4801Z" fill="#5D5D5D"/>
<path d="M49.3339 52.3205C47.9472 52.6405 45.7072 54.5605 44.9072 56.1072C43.8406 58.0805 44.1072 62.5605 45.3872 64.3739C48.4806 68.6939 56.0006 68.3739 59.0406 63.7872C61.2806 60.4805 60.2139 55.5205 56.9072 53.3339C55.5739 52.4805 51.2539 51.8939 49.3339 52.3205ZM53.7072 56.6939C55.4139 57.7605 55.4139 61.7072 53.7072 62.7739C51.6806 64.0539 49.0672 62.2405 49.0672 59.6272C49.0672 57.3339 51.8939 55.5205 53.7072 56.6939Z" fill="#5D5D5D"/>
<path d="M63.5739 53.3337C62.2939 54.4003 61.8672 55.2003 61.8672 56.5337C61.8672 58.2937 62.9339 59.5203 66.7205 62.187L67.9472 63.0403L66.7739 63.6803C65.8672 64.1603 65.2272 64.107 63.7339 63.5203L61.8672 62.7203V64.5337C61.8672 66.7203 62.1872 66.9337 65.8672 67.307C69.2272 67.6803 71.1472 66.7203 72.0539 64.3737C72.8005 62.4003 71.5205 60.0537 68.9072 58.667C67.8405 58.0803 66.8805 57.1737 66.7739 56.587C66.6139 55.7337 66.8272 55.627 68.3739 55.8403C69.3339 56.0003 70.5605 56.267 71.0405 56.5337C71.8405 56.8537 72.0005 56.6403 71.8939 55.5203C71.7339 53.547 70.3472 52.4803 67.5739 52.1603C65.6539 51.947 65.0139 52.107 63.5739 53.3337Z" fill="#5D5D5D"/>
<path d="M2.02676 73.6537C1.7601 73.867 1.6001 77.2803 1.6001 81.2804V88.5337L4.26677 88.3737L6.93343 88.1604V85.547V82.9337H9.38677C12.3734 82.9337 13.6001 82.2937 14.6668 80.2137C15.7334 78.2404 15.0401 75.5737 13.2268 74.4537C11.8934 73.6537 2.66677 72.9603 2.02676 73.6537ZM10.3468 77.1737C11.1468 78.507 10.1868 79.947 8.3201 80.1604C7.0401 80.3204 6.93343 80.2137 6.93343 78.1337C6.93343 76.0537 7.0401 75.947 8.3201 76.107C9.1201 76.2137 10.0268 76.6937 10.3468 77.1737Z" fill="#5D5D5D"/>
<path d="M17.4402 73.6537C17.2269 73.867 17.0669 77.2803 17.0669 81.2804V88.5337L19.7336 88.3737L22.4536 88.1604L22.2936 80.907L22.1336 73.6003L20.0002 73.4403C18.7736 73.3337 17.6536 73.4403 17.4402 73.6537Z" fill="#5D5D5D"/>
<path d="M24.907 73.6535C24.6937 73.8668 24.5337 74.7202 24.5337 75.5202C24.5337 77.0135 24.5337 77.0135 28.5337 77.1735L32.587 77.3335L28.8537 82.7202C26.7737 85.7068 25.1737 88.2135 25.2804 88.3202C25.4404 88.4268 28.907 88.4802 33.067 88.3735L40.587 88.2135L40.427 86.7735C40.267 85.3868 40.107 85.3335 36.6404 85.0668L33.067 84.8002L35.8937 80.5335C37.4937 78.1868 39.147 75.6268 39.6804 74.8268L40.587 73.4402L32.9604 73.3868C28.747 73.3335 25.1204 73.4402 24.907 73.6535Z" fill="#5D5D5D"/>
<path d="M42.2406 75.0404L42.4006 76.8004L46.0272 76.9604C48.0006 77.0671 49.6006 77.2271 49.6006 77.3871C49.6006 77.5471 48.2139 79.7337 46.5072 82.2938C44.8006 84.8538 43.2006 87.2538 42.9872 87.5738C42.6672 88.1071 44.2672 88.2671 50.0806 88.2671H57.6006V86.6671V85.0671H54.1339C52.2139 85.0671 50.6672 84.9604 50.6672 84.8004C50.6672 84.6404 52.1072 82.3471 53.8672 79.6804C55.6806 77.0671 57.2272 74.5604 57.3872 74.1337C57.6539 73.4404 56.5872 73.3337 49.8672 73.3337H42.0806L42.2406 75.0404Z" fill="#5D5D5D"/>
<path d="M65.227 73.8138C64.907 73.9738 64.0003 75.6805 63.2003 77.6005C62.4003 79.5205 61.227 82.1338 60.5336 83.4672C59.8936 84.8005 59.147 86.4005 58.987 87.0405C58.6136 88.2138 58.7736 88.2672 61.0136 88.2672C62.9336 88.2672 63.467 88.0538 63.7336 87.2005C64.0536 86.2938 64.5336 86.1338 67.7336 86.1338C70.8803 86.1338 71.467 86.2938 71.7336 87.1472C71.947 87.9472 72.6403 88.2138 74.667 88.3738C76.3203 88.4805 77.2803 88.3205 77.1203 88.0005C75.5203 84.3738 70.7736 74.0805 70.5603 73.8672C70.2403 73.4938 65.8136 73.3872 65.227 73.8138ZM69.0136 80.4272C69.4936 81.6538 69.867 82.8805 69.867 83.0938C69.867 83.3072 68.907 83.4672 67.7336 83.4672C66.5603 83.4672 65.6003 83.3072 65.6003 83.0938C65.6003 82.2405 67.3603 78.1338 67.7336 78.1338C67.947 78.1338 68.5336 79.1472 69.0136 80.4272Z" fill="#5D5D5D"/>
</svg>
